<svg xmlns="http://www.w3.org/2000/svg" xmlns:xlink="http://www.w3.org/1999/xlink" xmlns:lucid="lucid" width="1682.5" height="178.13"><g transform="translate(161.5 -219)" lucid:page-tab-id="wlzV0Wmaar84"><path d="M160 226a6 6 0 0 1 6-6h148a6 6 0 0 1 6 6v108a6 6 0 0 1-6 6H166a6 6 0 0 1-6-6z" stroke="#3a414a" stroke-width="2" fill="#fff"/><use xlink:href="#a" transform="matrix(1,0,0,1,172,232) translate(33.055338541666664 30.52777777777778)"/><use xlink:href="#b" transform="matrix(1,0,0,1,172,232) translate(31.57421875 57.415798611111114)"/><use xlink:href="#c" transform="matrix(1,0,0,1,172,232) translate(2.5486111111111285 84.30381944444446)"/><path d="M40 240c22.1 0 40 17.9 40 40s-17.9 40-40 40h-160c-22.1 0-40-17.9-40-40s17.9-40 40-40z" stroke="#3a414a" stroke-width="3" fill="#fff"/><use xlink:href="#d" transform="matrix(1,0,0,1,-155,245) translate(18.309461805555543 43.40277777777778)"/><path d="M83 280h58.5" stroke="#3a414a" stroke-width="3" fill="none"/><path d="M83.04 281.48H81.4l.1-1.46-.05-1.5h1.6z" stroke="#3a414a" stroke-width=".05" fill="#3a414a"/><path d="M156 280l-13 7.5v-15z" stroke="#3a414a" stroke-width="3" fill="#3a414a"/><path d="M322.5 280h59" stroke="#3a414a" stroke-width="3" fill="none"/><path d="M322.54 281.48H321v-2.96h1.54z" stroke="#3a414a" stroke-width=".05" fill="#3a414a"/><path d="M396 280l-13 7.5v-15z" stroke="#3a414a" stroke-width="3" fill="#3a414a"/><path d="M400 226a6 6 0 0 1 6-6h148a6 6 0 0 1 6 6v108a6 6 0 0 1-6 6H406a6 6 0 0 1-6-6z" stroke="#3a414a" stroke-width="2" fill="#fff"/><use xlink:href="#e" transform="matrix(1,0,0,1,412,232) translate(5.5542534722222285 42.52777777777778)"/><use xlink:href="#f" transform="matrix(1,0,0,1,412,232) translate(97.07986111111111 42.52777777777778)"/><use xlink:href="#g" transform="matrix(1,0,0,1,412,232) translate(19.535373263888893 69.41579861111111)"/><path d="M562.5 280h59" stroke="#3a414a" stroke-width="3" fill="none"/><path d="M562.54 281.48H561v-2.96h1.54z" stroke="#3a414a" stroke-width=".05" fill="#3a414a"/><path d="M636 280l-13 7.5v-15z" stroke="#3a414a" stroke-width="3" fill="#3a414a"/><path d="M640 226a6 6 0 0 1 6-6h148a6 6 0 0 1 6 6v108a6 6 0 0 1-6 6H646a6 6 0 0 1-6-6z" stroke="#3a414a" stroke-width="2" fill="#fff"/><use xlink:href="#h" transform="matrix(1,0,0,1,652,232) translate(13.046657986111114 42.52777777777778)"/><use xlink:href="#i" transform="matrix(1,0,0,1,652,232) translate(79.01888020833333 42.52777777777778)"/><use xlink:href="#j" transform="matrix(1,0,0,1,652,232) translate(46.16297743055556 69.41579861111111)"/><path d="M802.5 280h59" stroke="#3a414a" stroke-width="3" fill="none"/><path d="M802.54 281.48H801v-2.96h1.54z" stroke="#3a414a" stroke-width=".05" fill="#3a414a"/><path d="M876 280l-13 7.5v-15z" stroke="#3a414a" stroke-width="3" fill="#3a414a"/><path d="M880 226a6 6 0 0 1 6-6h148a6 6 0 0 1 6 6v108a6 6 0 0 1-6 6H886a6 6 0 0 1-6-6z" stroke="#3a414a" stroke-width="2" fill="#fff"/><use xlink:href="#k" transform="matrix(1,0,0,1,892,232) translate(12.270833333333343 42.52777777777778)"/><use xlink:href="#l" transform="matrix(1,0,0,1,892,232) translate(70.71267361111111 42.52777777777778)"/><use xlink:href="#m" transform="matrix(1,0,0,1,892,232) translate(23.197482638888886 69.41579861111111)"/><path d="M1042.5 280h59" stroke="#3a414a" stroke-width="3" fill="none"/><path d="M1042.54 281.48H1041v-2.96h1.54z" stroke="#3a414a" stroke-width=".05" fill="#3a414a"/><path d="M1116 280l-13 7.5v-15z" stroke="#3a414a" stroke-width="3" fill="#3a414a"/><path d="M1120 226a6 6 0 0 1 6-6h148a6 6 0 0 1 6 6v108a6 6 0 0 1-6 6h-148a6 6 0 0 1-6-6z" stroke="#3a414a" stroke-width="2" fill="#fff"/><use xlink:href="#n" transform="matrix(1,0,0,1,1132,232) translate(23.14322916666667 42.52777777777778)"/><use xlink:href="#f" transform="matrix(1,0,0,1,1132,232) translate(79.49088541666666 42.52777777777778)"/><use xlink:href="#o" transform="matrix(1,0,0,1,1132,232) translate(34.61241319444444 69.41579861111111)"/><path d="M1282.5 280h59" stroke="#3a414a" stroke-width="3" fill="none"/><path d="M1282.54 281.48H1281v-2.96h1.54z" stroke="#3a414a" stroke-width=".05" fill="#3a414a"/><path d="M1356 280l-13 7.5v-15z" stroke="#3a414a" stroke-width="3" fill="#3a414a"/><path d="M1480 240c22.1 0 40 17.9 40 40s-17.9 40-40 40h-80c-22.1 0-40-17.9-40-40s17.9-40 40-40z" stroke="#3a414a" stroke-width="2" fill="#fff"/><g><use xlink:href="#p" transform="matrix(1,0,0,1,1372,252) translate(21.59700520833335 35.52777777777778)"/></g><path d="M1195.06 379.94l.44 1.06-.44 1.06-1.06.44-1.06-.44-.44-1.06.44-1.06 1.06-.44zm-6 0l.45 1.06-.43 1.06-1.06.44-1.05-.44-.44-1.06.45-1.06 1.06-.44zm-5.98 0l.44 1.06-.44 1.06-1.06.44-1.06-.44-.44-1.06.44-1.06 1.06-.44zm-6 0l.45 1.06-.44 1.06-1.07.44-1.06-.44-.44-1.06.44-1.06 1.06-.44zm-5.98 0l.44 1.06-.44 1.06-1.06.44-1.06-.44-.44-1.06.44-1.06 1.06-.44zm-6 0l.45 1.06-.44 1.06-1.05.44-1.06-.44-.45-1.06.44-1.06 1.05-.44zm-5.98 0l.44 1.06-.44 1.06-1.06.44-1.06-.44-.44-1.06.44-1.06 1.06-.44zm-6 0l.45 1.06-.44 1.06-1.06.44-1.06-.44-.43-1.06.44-1.06 1.07-.44zm-5.98 0l.44 1.06-.44 1.06-1.06.44-1.06-.44-.44-1.06.44-1.06 1.06-.44zm-6 0l.45 1.06-.45 1.06-1.06.44-1.07-.44-.44-1.06.43-1.06 1.06-.44zm-5.98 0l.44 1.06-.44 1.06-1.06.44-1.06-.44-.44-1.06.44-1.06 1.06-.44zm-6 0l.45 1.06-.43 1.06-1.06.44-1.05-.44-.44-1.06.45-1.06 1.06-.44zm-5.98 0l.44 1.06-.44 1.06-1.06.44-1.06-.44-.44-1.06.44-1.06 1.06-.44zm-6 0l.45 1.06-.44 1.06-1.07.44-1.06-.44-.44-1.06.44-1.06 1.06-.44zm-5.98 0l.44 1.06-.44 1.06-1.06.44-1.06-.44-.44-1.06.44-1.06 1.06-.44zm-6 0l.45 1.06-.44 1.06-1.05.44-1.06-.44-.45-1.06.44-1.06 1.05-.44zm-5.98 0l.44 1.06-.44 1.06-1.06.44-1.07-.44-.44-1.06.43-1.06 1.06-.44zm-6 0l.45 1.06-.44 1.06-1.06.44-1.07-.44-.43-1.06.43-1.06 1.07-.44zm-5.98 0l.44 1.06-.44 1.06-1.06.44-1.07-.44-.42-1.06.43-1.06 1.08-.44zm-6 0l.44 1.06-.43 1.06-1.07.44-1.06-.44-.43-1.06.42-1.06 1.07-.44zm-5.98 0l.43 1.06-.44 1.06-1.07.44-1.07-.44-.44-1.06.43-1.06 1.06-.44zm-6 0l.44 1.06-.43 1.06-1.07.44-1.06-.44-.44-1.06.44-1.06 1.06-.44zm-5.98 0l.43 1.06-.42 1.06-1.07.44-1.05-.44-.44-1.06.45-1.06 1.06-.44zm-6 0l.44 1.06-.43 1.06-1.08.44-1.06-.44-.44-1.06.44-1.06 1.06-.44zm-5.98 0l.43 1.06-.43 1.06-1.07.44-1.06-.44-.44-1.06.44-1.06 1.06-.44zm-6 0l.44 1.06-.43 1.06-1.06.44-1.06-.44-.44-1.06.44-1.06 1.06-.44zm-6 0l.45 1.06-.44 1.06-1.05.44-1.06-.44-.45-1.06.44-1.06 1.05-.44zm-5.98 0l.44 1.06-.44 1.06-1.06.44-1.06-.44-.44-1.06.44-1.06 1.06-.44zm-6 0l.45 1.06-.44 1.06-1.06.44-1.06-.44-.43-1.06.44-1.06 1.07-.44zm-5.98 0l.44 1.06-.44 1.06-1.06.44-1.06-.44-.44-1.06.44-1.06 1.06-.44zm-6 0l.45 1.06-.45 1.06-1.06.44-1.07-.44-.44-1.06.43-1.06 1.06-.44zm-5.98 0l.44 1.06-.44 1.06-1.06.44-1.06-.44-.44-1.06.44-1.06 1.06-.44zm-6 0l.45 1.06-.43 1.06-1.06.44-1.05-.44-.44-1.06.45-1.06 1.06-.44zm-5.98 0l.44 1.06-.44 1.06-1.06.44-1.06-.44-.44-1.06.44-1.06 1.06-.44zm-6 0l.45 1.06-.44 1.06-1.07.44-1.06-.44-.44-1.06.44-1.06 1.06-.44zm-5.98 0l.44 1.06-.44 1.06-1.06.44-1.06-.44-.44-1.06.44-1.06 1.06-.44zm-6 0l.45 1.06-.44 1.06-1.05.44-1.06-.44-.45-1.06.44-1.06 1.05-.44zm-5.98 0l.44 1.06-.44 1.06-1.06.44-1.06-.44-.44-1.06.44-1.06 1.06-.44zm-6 0l.45 1.06-.44 1.06-1.06.44-1.06-.44-.43-1.06.44-1.06 1.07-.44zm-5.98 0l.44 1.06-.44 1.06-1.06.44-1.06-.44-.44-1.06.44-1.06 1.06-.44zm-6 0l.45 1.06-.45 1.06-1.06.44-1.07-.44-.44-1.06.43-1.06 1.06-.44zm-5.98 0l.44 1.06-.44 1.06-1.06.44-1.06-.44-.44-1.06.44-1.06 1.06-.44zm-6 0l.45 1.06-.43 1.06-1.06.44-1.05-.44-.44-1.06.45-1.06 1.06-.44zm-5.98 0l.44 1.06-.44 1.06-1.06.44-1.06-.44-.44-1.06.44-1.06 1.06-.44zm-6 0l.45 1.06-.44 1.06-1.07.44-1.06-.44-.44-1.06.44-1.06 1.06-.44zm-5.98 0l.44 1.06-.44 1.06-1.06.44-1.06-.44-.44-1.06.44-1.06 1.06-.44zm-6 0l.45 1.06-.44 1.06-1.05.44-1.06-.44-.45-1.06.44-1.06 1.05-.44zm-5.98 0l.44 1.06-.44 1.06-1.06.44-1.06-.44-.44-1.06.44-1.06 1.06-.44zm-6 0l.45 1.06-.44 1.06-1.06.44-1.06-.44-.43-1.06.44-1.06 1.07-.44zm-5.98 0l.44 1.06-.44 1.06-1.06.44-1.06-.44-.44-1.06.44-1.06 1.06-.44zm-6 0L896 381l-.45 1.06-1.06.44-1.07-.44L893 381l.43-1.06 1.06-.44zm-5.98 0L890 381l-.44 1.06-1.06.44-1.06-.44L887 381l.44-1.06 1.06-.44zm-6 0l.45 1.06-.43 1.06-1.06.44-1.05-.44L881 381l.45-1.06 1.06-.44zm-5.98 0l.44 1.06-.44 1.06-1.06.44-1.06-.44-.44-1.06.44-1.06 1.06-.44zm-6 0l.45 1.06-.44 1.06-1.07.44-1.06-.44-.44-1.06.44-1.06 1.06-.44zm-5.98 0l.44 1.06-.44 1.06-1.06.44-1.06-.44-.44-1.06.44-1.06 1.06-.44zm-6 0l.45 1.06-.44 1.06-1.05.44-1.06-.44-.45-1.06.44-1.06 1.05-.44zm-5.98 0l.44 1.06-.44 1.06-1.06.44-1.06-.44-.44-1.06.44-1.06 1.06-.44zm-6 0l.45 1.06-.44 1.06-1.06.44-1.07-.44-.43-1.06.43-1.06 1.07-.44zm-5.98 0l.44 1.06-.44 1.06-1.06.44-1.07-.44-.42-1.06.43-1.06 1.08-.44zm-6 0l.45 1.06-.45 1.06-1.06.44-1.08-.44-.43-1.06.42-1.06 1.07-.44zm-5.98 0l.44 1.06-.44 1.06-1.06.44-1.07-.44-.43-1.06.43-1.06 1.07-.44zm-6 0l.45 1.06-.43 1.06-1.06.44-1.06-.44-.43-1.06.44-1.06 1.07-.44zm-6 0l.46 1.06-.45 1.06-1.05.44-1.07-.44-.43-1.06.43-1.06 1.07-.44zm-5.98 0l.44 1.06-.44 1.06-1.06.44-1.06-.44-.44-1.06.44-1.06 1.06-.44zm-5.98 0l.43 1.06-.43 1.06-1.07.44-1.06-.44-.44-1.06.44-1.06 1.06-.44zm-6 0l.44 1.06-.43 1.06-1.06.44-1.06-.44-.44-1.06.44-1.06 1.06-.44zm-6 0l.45 1.06-.44 1.06-1.05.44-1.06-.44-.45-1.06.44-1.06 1.05-.44zm-5.98 0l.44 1.06-.44 1.06-1.06.44-1.06-.44-.44-1.06.44-1.06 1.06-.44zm-6 0l.45 1.06-.44 1.06-1.06.44-1.06-.44-.43-1.06.44-1.06 1.07-.44zm-5.98 0l.44 1.06-.44 1.06-1.06.44-1.06-.44-.44-1.06.44-1.06 1.06-.44zm-6 0l.45 1.06-.45 1.06-1.06.44-1.07-.44-.44-1.06.43-1.06 1.06-.44zm-5.98 0l.44 1.06-.44 1.06-1.06.44-1.06-.44-.44-1.06.44-1.06 1.06-.44zm-6 0l.45 1.06-.43 1.06-1.06.44-1.05-.44-.44-1.06.45-1.06 1.06-.44zm-5.98 0l.44 1.06-.44 1.06-1.06.44-1.06-.44-.44-1.06.44-1.06 1.06-.44zm-6 0l.45 1.06-.44 1.06-1.07.44-1.06-.44-.44-1.06.44-1.06 1.06-.44zm-5.98 0l.44 1.06-.44 1.06-1.06.44-1.06-.44-.44-1.06.44-1.06 1.06-.44zm-6 0l.45 1.06-.44 1.06-1.05.44-1.06-.44-.45-1.06.44-1.06 1.05-.44zm-5.98 0l.44 1.06-.44 1.06-1.06.44-1.06-.44-.44-1.06.44-1.06 1.06-.44zm-6 0l.45 1.06-.44 1.06-1.06.44-1.06-.44-.43-1.06.44-1.06 1.07-.44zm-5.98 0l.44 1.06-.44 1.06-1.06.44-1.06-.44-.44-1.06.44-1.06 1.06-.44zm-6 0l.45 1.06-.45 1.06-1.06.44-1.07-.44-.44-1.06.43-1.06 1.06-.44zm-5.98 0l.44 1.06-.44 1.06-1.06.44-1.06-.44-.44-1.06.44-1.06 1.06-.44zm-6 0l.45 1.06-.43 1.06-1.06.44-1.05-.44-.44-1.06.45-1.06 1.06-.44zm-5.98 0l.44 1.06-.44 1.06-1.06.44-1.06-.44-.44-1.06.44-1.06 1.06-.44zm-6 0l.45 1.06-.44 1.06-1.07.44-1.06-.44-.44-1.06.44-1.06 1.06-.44zm-5.98 0l.44 1.06-.44 1.06-1.06.44-1.06-.44-.44-1.06.44-1.06 1.06-.44zm-6 0l.45 1.06-.44 1.06-1.05.44-1.06-.44-.45-1.06.44-1.06 1.05-.44zm-5.98 0l.44 1.06-.44 1.06-1.06.44-1.06-.44-.44-1.06.44-1.06 1.06-.44zm-6 0l.45 1.06-.44 1.06-1.06.44-1.06-.44-.43-1.06.44-1.06 1.07-.44zm-5.98 0l.44 1.06-.44 1.06-1.06.44-1.06-.44-.44-1.06.44-1.06 1.06-.44zm-6 0l.45 1.06-.45 1.06-1.06.44-1.07-.44-.44-1.06.43-1.06 1.06-.44zm-5.98 0l.44 1.06-.44 1.06-1.06.44-1.06-.44-.44-1.06.44-1.06 1.06-.44zm-6 0l.45 1.06-.43 1.06-1.06.44-1.05-.44-.44-1.06.45-1.06 1.06-.44zm-5.98 0l.44 1.06-.44 1.06-1.06.44-1.06-.44-.44-1.06.44-1.06 1.06-.44zm-6 0l.45 1.06-.44 1.06-1.07.44-1.06-.44-.44-1.06.44-1.06 1.06-.44zm-5.98 0l.44 1.06-.44 1.06-1.06.44-1.06-.44-.44-1.06.44-1.06 1.06-.44zm-6 0l.45 1.06-.44 1.06-1.05.44-1.06-.44-.45-1.06.44-1.06 1.05-.44zm-5.98 0l.44 1.06-.44 1.06-1.06.44-1.07-.44-.44-1.06.43-1.06 1.06-.44zm-6 0l.45 1.06-.44 1.06-1.06.44-1.07-.44-.43-1.06.43-1.06 1.07-.44zm-5.98 0l.44 1.06-.44 1.06-1.06.44-1.07-.44-.42-1.06.43-1.06 1.08-.44zm-6 0l.45 1.06-.45 1.06-1.06.44-1.08-.44-.43-1.06.42-1.06 1.07-.44zm-5.98 0l.44 1.06-.44 1.06-1.06.44-1.07-.44-.43-1.06.43-1.06 1.07-.44zm-6 0l.45 1.06-.43 1.06-1.07.44-1.06-.44-.44-1.06.44-1.06 1.06-.44zm-5.98 0l.43 1.06-.42 1.06-1.07.44-1.05-.44-.44-1.06.45-1.06 1.06-.44zm-185.7 0l.44 1.06-.44 1.06-1.06.44-1.06-.44-.44-1.06.44-1.06 1.06-.44zm-6 0l.45 1.06-.44 1.06-1.07.44-1.06-.44-.44-1.06.44-1.06 1.06-.44zm-5.98 0l.44 1.06-.44 1.06-1.06.44-1.06-.44-.44-1.06.44-1.06 1.06-.44zm-6 0l.45 1.06-.44 1.06-1.05.44-1.06-.44-.45-1.06.44-1.06 1.05-.44zm-5.98 0l.44 1.06-.44 1.06-1.06.44-1.06-.44-.44-1.06.44-1.06 1.06-.44zm-6 0l.45 1.06-.44 1.06-1.06.44-1.06-.44-.43-1.06.44-1.06 1.07-.44zm-5.98 0l.44 1.06-.44 1.06-1.06.44-1.06-.44-.44-1.06.44-1.06 1.06-.44zm-6 0l.44 1.06-.43 1.06-1.06.44-1.07-.44-.44-1.06.43-1.06 1.06-.44zm-5.98 0l.44 1.06-.44 1.06-1.06.44-1.07-.44-.44-1.06.43-1.06 1.06-.44zm-6 0l.44 1.06-.43 1.06-1.07.44-1.06-.44-.44-1.06.44-1.06 1.06-.44zm-5.98 0l.44 1.06-.44 1.06-1.06.44-1.07-.44-.44-1.06.45-1.06 1.06-.44zm-6 0l.44 1.06-.44 1.06-1.06.44-1.06-.44-.44-1.06.44-1.06 1.06-.44zm-6 0l.45 1.06-.44 1.06-1.07.44-1.06-.44-.44-1.06.44-1.06 1.06-.44zm-5.98 0l.44 1.06-.44 1.06-1.06.44-1.06-.44-.44-1.06.44-1.06 1.06-.44zm-6 0l.45 1.06-.44 1.06-1.05.44-1.06-.44-.45-1.06.44-1.06 1.05-.44zm-5.98 0l.44 1.06-.44 1.06-1.06.44-1.06-.44-.44-1.06.44-1.06 1.06-.44zm-6 0l.45 1.06-.44 1.06-1.06.44-1.06-.44-.43-1.06.44-1.06 1.07-.44zm-5.98 0l.44 1.06-.44 1.06-1.06.44-1.06-.44-.44-1.06.44-1.06 1.06-.44zm-6 0L279 381l-.45 1.06-1.06.44-1.07-.44L276 381l.43-1.06 1.06-.44zm-5.98 0L273 381l-.44 1.06-1.06.44-1.06-.44L270 381l.44-1.06 1.06-.44zm-6 0l.45 1.06-.43 1.06-1.06.44-1.05-.44L264 381l.45-1.06 1.06-.44zm-5.98 0l.44 1.06-.44 1.06-1.06.44-1.06-.44-.44-1.06.44-1.06 1.06-.44zm-6 0l.45 1.06-.44 1.06-1.07.44-1.06-.44-.44-1.06.44-1.06 1.06-.44zm-5.98 0l.44 1.06-.44 1.06-1.06.44-1.06-.44-.44-1.06.44-1.06 1.06-.44zm-6 0l.45 1.06-.44 1.06-1.05.44-1.06-.44-.45-1.06.44-1.06 1.05-.44zm-5.98 0l.44 1.06-.44 1.06-1.06.44-1.06-.44-.44-1.06.44-1.06 1.06-.44zm-6 0l.45 1.06-.44 1.06-1.06.44-1.06-.44-.43-1.06.44-1.06 1.07-.44zm-5.98 0l.44 1.06-.44 1.06-1.06.44-1.06-.44-.44-1.06.44-1.06 1.06-.44zm-6 0l.45 1.06-.45 1.06-1.06.44-1.07-.44-.44-1.06.43-1.06 1.06-.44zm-5.98 0l.44 1.06-.44 1.06-1.06.44-1.06-.44-.44-1.06.44-1.06 1.06-.44zm-6 0l.45 1.06-.43 1.06-1.06.44-1.05-.44-.44-1.06.45-1.06 1.06-.44zm-5.98 0l.44 1.06-.44 1.06-1.06.44-1.06-.44-.44-1.06.44-1.06 1.06-.44zm-6 0l.45 1.06-.44 1.06-1.07.44-1.06-.44-.44-1.06.44-1.06 1.06-.44zm-5.98 0l.44 1.06-.44 1.06-1.06.44-1.06-.44-.44-1.06.44-1.06 1.06-.44zm-6 0l.45 1.06-.44 1.06-1.05.44-1.06-.44-.45-1.06.44-1.06 1.05-.44zm-5.98 0l.44 1.06-.44 1.06-1.06.44-1.06-.44-.44-1.06.44-1.06 1.06-.44zm-6 0l.45 1.06-.44 1.06-1.06.44-1.06-.44-.43-1.06.44-1.06 1.07-.44zm-5.98 0l.44 1.06-.44 1.06-1.06.44-1.06-.44-.44-1.06.44-1.06 1.06-.44zm-6 0l.45 1.06-.45 1.06-1.06.44-1.07-.44-.44-1.06.43-1.06 1.06-.44zm-5.98 0l.44 1.06-.44 1.06-1.06.44-1.06-.44-.44-1.06.44-1.06 1.06-.44zm-6 0l.45 1.06-.43 1.06-1.06.44-1.05-.44-.44-1.06.45-1.06 1.06-.44zm-5.98 0l.44 1.06-.44 1.06-1.06.44-1.06-.44-.44-1.06.44-1.06 1.06-.44zm-6 0l.45 1.06-.44 1.06-1.07.44-1.06-.44-.44-1.06.44-1.06 1.06-.44zm-5.98 0l.44 1.06-.44 1.06-1.06.44-1.06-.44-.44-1.06.44-1.06 1.06-.44zm-6 0l.45 1.06-.44 1.06-1.05.44-1.06-.44-.45-1.06.44-1.06 1.05-.44zm-5.98 0l.44 1.06-.44 1.06-1.06.44-1.07-.44-.44-1.06.43-1.06 1.06-.44zm-6 0l.45 1.06-.44 1.06-1.06.44-1.06-.44-.43-1.06.44-1.06 1.07-.44zm-5.98 0l.44 1.06-.44 1.06-1.06.44-1.06-.44-.44-1.06.44-1.06 1.06-.44zm-6 0l.44 1.06-.43 1.06-1.06.44-1.08-.44-.44-1.06.44-1.06 1.06-.44zm-5.98 0l.44 1.06-.44 1.06-1.06.44-1.07-.44-.44-1.06.43-1.06 1.06-.44zm-6 0l.45 1.06-.43 1.06-1.06.44-1.06-.44-.43-1.06.44-1.06 1.07-.44zm-5.98 0l.44 1.06-.44 1.06-1.06.44-1.07-.44-.44-1.06.45-1.06 1.06-.44zm-6 0l.44 1.06-.43 1.06-1.08.44-1.06-.44-.44-1.06.44-1.06 1.06-.44zm-5.98 0l.43 1.06-.44 1.06-1.07.44-1.06-.44-.44-1.06.44-1.06 1.06-.44zm-6 0l.44 1.06-.44 1.06-1.06.44-1.06-.44-.44-1.06.44-1.06 1.06-.44zm-6 0l.45 1.06-.44 1.06-1.05.44-1.06-.44-.45-1.06.44-1.06 1.05-.44zm-5.98 0l.44 1.06-.44 1.06-1.06.44-1.06-.44-.44-1.06.44-1.06 1.06-.44zm-6 0l.45 1.06-.44 1.06-1.06.44-1.06-.44-.43-1.06.44-1.06 1.07-.44zm-5.98 0l.44 1.06-.44 1.06-1.06.44-1.06-.44-.44-1.06.44-1.06 1.06-.44zm-6 0l.45 1.06-.45 1.06-1.06.44-1.07-.44-.44-1.06.43-1.06 1.06-.44zm-5.98 0l.44 1.06-.44 1.06-1.06.44-1.06-.44-.44-1.06.44-1.06 1.06-.44zm-6 0l.45 1.06-.43 1.06-1.06.44-1.05-.44-.44-1.06.45-1.06 1.06-.44zm-5.98 0l.44 1.06-.44 1.06-1.06.44-1.06-.44-.44-1.06.44-1.06 1.06-.44zm-6 0l.45 1.06-.44 1.06-1.07.44-1.06-.44-.44-1.06.44-1.06 1.06-.44zm-5.98 0l.44 1.06-.44 1.06-1.06.44-1.06-.44L.44 381l.44-1.06 1.06-.44zm-6 0l.45 1.06-.44 1.06-1.05.44-1.06-.44-.45-1.06.44-1.06 1.05-.44zm-5.98 0l.44 1.06-.44 1.06-1.06.44-1.06-.44-.44-1.06.44-1.06 1.06-.44zm-6 0l.45 1.06-.44 1.06-1.06.44-1.06-.44-.43-1.06.44-1.06 1.07-.44zm-5.98 0l.44 1.06-.44 1.06-1.06.44-1.06-.44-.44-1.06.44-1.06 1.06-.44zm-6 0l.45 1.06-.45 1.06-1.06.44-1.07-.44-.44-1.06.43-1.06 1.06-.44zm-5.98 0l.44 1.06-.44 1.06-1.06.44-1.06-.44-.44-1.06.44-1.06 1.06-.44zm423.18 2.1l-.43-1.04.44-1.03zm809.06-3.86l.44 1.06-.44 1.06-1.06.44-1.06-.44-.44-1.06.44-1.06 1.06-.44zm-1236.48 0l.44 1.06-.44 1.06-1.06.44-1.06-.44-.44-1.06.44-1.06 1.06-.44zm1238.24-4.24l.44 1.06-.44 1.06-1.06.44-1.06-.44-.44-1.06.44-1.06 1.06-.44zm-1240 0l.44 1.06-.44 1.06-1.06.44-1.06-.44-.44-1.06.44-1.06 1.06-.44zm1240-5.5l.44 1.06-.44 1.06-1.06.44-1.06-.44-.44-1.06.44-1.06 1.06-.44zm-1240-.28l.44 1.06-.44 1.06-1.06.44-1.06-.44-.44-1.06.44-1.06 1.06-.44zm1240-5.23l.44 1.06-.44 1.05-1.06.44-1.06-.45-.44-1.06.44-1.07 1.06-.44zm-1240-.55l.44 1.06-.44 1.06-1.06.44-1.06-.44-.44-1.06.44-1.06 1.06-.44zm0-5.77l.44 1.07-.44 1.06-1.06.44-1.06-.44-.44-1.06.44-1.06 1.06-.43zm0-5.77l.44 1.06-.44 1.05-1.06.44-1.06-.45-.44-1.06.44-1.07 1.06-.44zm0-5.78l.44 1.06-.44 1.07-1.06.44-1.06-.43-.44-1.06.44-1.05 1.06-.44zm0-5.78l.44 1.06-.44 1.06-1.06.43-1.06-.44-.44-1.07.44-1.06 1.06-.44zm0-5.77l.44 1.06-.44 1.06-1.06.44-1.06-.44-.44-1.06.44-1.06 1.06-.44zm0-5.78l.44 1.06-.44 1.06-1.06.44-1.06-.44-.44-1.06.44-1.06 1.06-.44zm0-5.78l.44 1.06-.44 1.06-1.06.44-1.06-.44-.44-1.06.44-1.06 1.06-.44z" fill="#3a414a"/><path d="M-38.52 323.04h-2.95v-1.54h2.95z" fill="#3a414a"/><path stroke="#3a414a" stroke-width=".05" fill="#3a414a"/><path d="M1207.5 357h-15l7.5-13z" fill="#3a414a"/><path d="M1210.06 358.46h-20.12l10.06-17.4zm-15-2.94h9.88l-4.94-8.57z" stroke="#3a414a" stroke-width=".05" fill="#3a414a"/><g><use xlink:href="#q" transform="matrix(1,0,0,1,390.23547417528016,364.86713750000024) translate(0 25.833333333333336)"/></g><defs><path d="M783 20c-382 0-661-292-661-764 0-473 279-766 661-766 302 0 548 182 601 489h-190c-42-204-217-313-411-313-268 0-476 208-476 590 0 381 209 588 476 588 195 0 369-110 411-313h190c-52 303-296 489-601 489" id="r"/><path d="M158 0v-1118h174v172h12c41-113 157-188 290-188 26 0 70 2 91 3v181c-11-2-60-10-108-10-161 0-279 109-279 260V0H158" id="s"/><path d="M628 24c-324 0-524-230-524-574 0-343 198-582 503-582 237 0 487 146 487 559v75H286c9 234 145 362 343 362 132 0 231-58 273-172l174 48C1024-91 857 24 628 24zM287-650h624c-17-190-120-322-304-322-192 0-309 151-320 322" id="t"/><path d="M471 26C259 26 90-98 90-318c0-256 228-303 435-329 202-27 287-16 287-108 0-139-79-219-234-219-161 0-248 86-283 164l-173-57c86-203 278-265 451-265 150 0 419 46 419 395V0H815v-152h-12C765-73 660 26 471 26zm31-159c199 0 310-134 310-271v-155c-30 35-226 55-295 64-131 17-246 59-246 186 0 116 97 176 231 176" id="u"/><path d="M598-1118v154H368v674c0 100 37 144 132 144 23 0 62-6 92-12L629-6c-37 13-88 20-134 20-193 0-307-107-307-290v-688H20v-154h168v-266h180v266h230" id="v"/><g id="a"><use transform="matrix(0.010850694444444444,0,0,0.010850694444444444,0,0)" xlink:href="#r"/><use transform="matrix(0.010850694444444444,0,0,0.010850694444444444,16.23263888888889,0)" xlink:href="#s"/><use transform="matrix(0.010850694444444444,0,0,0.010850694444444444,24.229600694444443,0)" xlink:href="#t"/><use transform="matrix(0.010850694444444444,0,0,0.010850694444444444,37.40234375,0)" xlink:href="#u"/><use transform="matrix(0.010850694444444444,0,0,0.010850694444444444,49.88064236111111,0)" xlink:href="#v"/><use transform="matrix(0.010850694444444444,0,0,0.010850694444444444,56.93359375000001,0)" xlink:href="#t"/></g><path d="M158 418v-1536h174v179h20c37-59 106-193 324-193 279 0 474 222 474 576 0 356-194 580-473 580-213 0-288-135-325-197h-14v591H158zm492-555c209 0 317-186 317-421 0-232-105-413-317-413-206 0-314 166-314 413 0 249 111 421 314 421" id="w"/><path d="M140 405l46-156c120 36 205 19 263-150l32-93L54-1118h197c107 313 237 620 324 950 87-331 219-637 326-950h196L606 167c-68 178-176 259-334 259-64 0-113-12-132-21" id="x"/><path d="M338-670V0H158v-1490h180v566c73-149 190-208 336-208 226 0 379 139 379 422V0H872v-695c0-172-96-275-252-275-161 0-282 109-282 300" id="y"/><path d="M613 24c-304 0-509-231-509-576 0-350 205-580 509-580 305 0 511 230 511 580 0 345-206 576-511 576zm0-161c226 0 329-195 329-415 0-222-103-419-329-419-223 0-326 196-326 419 0 220 103 415 326 415" id="z"/><path d="M338-670V0H158v-1118h173l1 207c72-158 192-221 342-221 226 0 378 139 378 422V0H872v-695c0-172-96-275-252-275-161 0-282 109-282 300" id="A"/><g id="b"><use transform="matrix(0.010850694444444444,0,0,0.010850694444444444,0,0)" xlink:href="#w"/><use transform="matrix(0.010850694444444444,0,0,0.010850694444444444,13.172743055555552,0)" xlink:href="#x"/><use transform="matrix(0.010850694444444444,0,0,0.010850694444444444,25.987413194444443,0)" xlink:href="#v"/><use transform="matrix(0.010850694444444444,0,0,0.010850694444444444,33.25737847222222,0)" xlink:href="#y"/><use transform="matrix(0.010850694444444444,0,0,0.010850694444444444,46.39756944444444,0)" xlink:href="#z"/><use transform="matrix(0.010850694444444444,0,0,0.010850694444444444,59.72222222222222,0)" xlink:href="#A"/></g><path d="M481 0L54-1118h197c107 314 236 620 325 951 87-331 217-637 324-951h197L670 0H481" id="B"/><path d="M158 0v-1118h180V0H158zm91-1301c-68 0-125-53-125-119s57-119 125-119c69 0 126 53 126 119s-57 119-126 119" id="C"/><path d="M158 0v-1118h175l1 205c55-151 181-225 313-225 147 0 245 90 285 228 53-141 190-228 352-228 194 0 352 125 352 384V0h-181v-749c0-161-105-225-225-225-151 0-243 103-243 244V0H807v-767c0-124-93-207-219-207-131 0-250 92-250 270V0H158" id="D"/><g id="c"><use transform="matrix(0.010850694444444444,0,0,0.010850694444444444,0,0)" xlink:href="#t"/><use transform="matrix(0.010850694444444444,0,0,0.010850694444444444,12.955729166666666,0)" xlink:href="#A"/><use transform="matrix(0.010850694444444444,0,0,0.010850694444444444,25.759548611111104,0)" xlink:href="#B"/><use transform="matrix(0.010850694444444444,0,0,0.010850694444444444,38.248697916666664,0)" xlink:href="#C"/><use transform="matrix(0.010850694444444444,0,0,0.010850694444444444,43.63064236111111,0)" xlink:href="#s"/><use transform="matrix(0.010850694444444444,0,0,0.010850694444444444,51.62760416666666,0)" xlink:href="#z"/><use transform="matrix(0.010850694444444444,0,0,0.010850694444444444,64.95225694444443,0)" xlink:href="#A"/><use transform="matrix(0.010850694444444444,0,0,0.010850694444444444,78.0815972222222,0)" xlink:href="#D"/><use transform="matrix(0.010850694444444444,0,0,0.010850694444444444,97.54774305555553,0)" xlink:href="#t"/><use transform="matrix(0.010850694444444444,0,0,0.010850694444444444,110.5034722222222,0)" xlink:href="#A"/><use transform="matrix(0.010850694444444444,0,0,0.010850694444444444,123.63281249999997,0)" xlink:href="#v"/></g><path d="M295 13c-75 0-135-60-135-135s60-135 135-135 135 60 135 135S370 13 295 13" id="E"/><path d="M692-1560L212 224H46l480-1784h166" id="F"/><path d="M538 24C308 24 148-78 108-271l171-41c32 123 123 178 257 178 156 0 256-77 256-169 0-77-54-128-164-154l-186-44c-203-48-300-148-300-305 0-192 176-326 414-326 230 0 351 112 402 269l-163 42c-31-80-94-158-238-158-133 0-233 69-233 162 0 83 57 129 188 160l169 40c203 48 298 149 298 302 0 196-179 339-441 339" id="G"/><path d="M613 24c-304 0-509-231-509-576 0-350 205-580 509-580 216 0 392 114 453 309l-173 49c-33-115-133-197-280-197-223 0-326 196-326 419 0 220 103 415 326 415 150 0 252-85 285-206l172 49C1010-95 832 24 613 24" id="H"/><g id="d"><use transform="matrix(0.010850694444444444,0,0,0.010850694444444444,0,0)" xlink:href="#E"/><use transform="matrix(0.010850694444444444,0,0,0.010850694444444444,6.401909722222222,0)" xlink:href="#F"/><use transform="matrix(0.010850694444444444,0,0,0.010850694444444444,14.409722222222221,0)" xlink:href="#G"/><use transform="matrix(0.010850694444444444,0,0,0.010850694444444444,26.139322916666664,0)" xlink:href="#s"/><use transform="matrix(0.010850694444444444,0,0,0.010850694444444444,34.13628472222222,0)" xlink:href="#H"/><use transform="matrix(0.010850694444444444,0,0,0.010850694444444444,46.83159722222222,0)" xlink:href="#F"/><use transform="matrix(0.010850694444444444,0,0,0.010850694444444444,54.83940972222222,0)" xlink:href="#t"/><use transform="matrix(0.010850694444444444,0,0,0.010850694444444444,67.79513888888889,0)" xlink:href="#A"/><use transform="matrix(0.010850694444444444,0,0,0.010850694444444444,80.92447916666666,0)" xlink:href="#v"/><use transform="matrix(0.010850694444444444,0,0,0.010850694444444444,88.19444444444443,0)" xlink:href="#s"/><use transform="matrix(0.010850694444444444,0,0,0.010850694444444444,96.90755208333333,0)" xlink:href="#x"/><use transform="matrix(0.010850694444444444,0,0,0.010850694444444444,109.39670138888889,0)" xlink:href="#w"/><use transform="matrix(0.010850694444444444,0,0,0.010850694444444444,123.00347222222221,0)" xlink:href="#z"/><use transform="matrix(0.010850694444444444,0,0,0.010850694444444444,136.328125,0)" xlink:href="#C"/><use transform="matrix(0.010850694444444444,0,0,0.010850694444444444,141.71006944444446,0)" xlink:href="#A"/><use transform="matrix(0.010850694444444444,0,0,0.010850694444444444,154.83940972222223,0)" xlink:href="#v"/><use transform="matrix(0.010850694444444444,0,0,0.010850694444444444,162.109375,0)" xlink:href="#E"/><use transform="matrix(0.010850694444444444,0,0,0.010850694444444444,168.51128472222223,0)" xlink:href="#G"/><use transform="matrix(0.010850694444444444,0,0,0.010850694444444444,180.24088541666669,0)" xlink:href="#y"/></g><path d="M370-1490V0H180v-1490h190" id="I"/><path d="M338-1490V0H158v-1490h180" id="J"/><path d="M126 0v-134l627-806v-11H146v-167h839v143L376-178v11h629V0H126" id="K"/><g id="e"><use transform="matrix(0.010850694444444444,0,0,0.010850694444444444,0,0)" xlink:href="#I"/><use transform="matrix(0.010850694444444444,0,0,0.010850694444444444,5.967881944444445,0)" xlink:href="#A"/><use transform="matrix(0.010850694444444444,0,0,0.010850694444444444,19.09722222222222,0)" xlink:href="#C"/><use transform="matrix(0.010850694444444444,0,0,0.010850694444444444,24.479166666666664,0)" xlink:href="#v"/><use transform="matrix(0.010850694444444444,0,0,0.010850694444444444,31.749131944444443,0)" xlink:href="#C"/><use transform="matrix(0.010850694444444444,0,0,0.010850694444444444,37.131076388888886,0)" xlink:href="#u"/><use transform="matrix(0.010850694444444444,0,0,0.010850694444444444,49.609375,0)" xlink:href="#J"/><use transform="matrix(0.010850694444444444,0,0,0.010850694444444444,54.99131944444444,0)" xlink:href="#C"/><use transform="matrix(0.010850694444444444,0,0,0.010850694444444444,60.373263888888886,0)" xlink:href="#K"/><use transform="matrix(0.010850694444444444,0,0,0.010850694444444444,72.31987847222221,0)" xlink:href="#t"/></g><g id="f"><use transform="matrix(0.010850694444444444,0,0,0.010850694444444444,0,0)" xlink:href="#v"/><use transform="matrix(0.010850694444444444,0,0,0.010850694444444444,7.269965277777778,0)" xlink:href="#y"/><use transform="matrix(0.010850694444444444,0,0,0.010850694444444444,20.41015625,0)" xlink:href="#t"/></g><path d="M577 24c-279 0-473-224-473-580 0-354 195-576 474-576 218 0 287 134 324 193h14v-551h180V0H922v-173h-20C865-111 790 24 577 24zm27-161c203 0 314-172 314-421 0-247-108-413-314-413-212 0-317 181-317 413 0 235 108 421 317 421" id="L"/><path d="M677 24c-213 0-288-135-325-197h-20V0H158v-1490h180v551h14c37-59 106-193 324-193 279 0 474 222 474 576 0 356-194 580-473 580zm-27-161c209 0 317-186 317-421 0-232-105-413-317-413-206 0-314 166-314 413 0 249 111 421 314 421" id="M"/><g id="g"><use transform="matrix(0.010850694444444444,0,0,0.010850694444444444,0,0)" xlink:href="#L"/><use transform="matrix(0.010850694444444444,0,0,0.010850694444444444,13.606770833333332,0)" xlink:href="#u"/><use transform="matrix(0.010850694444444444,0,0,0.010850694444444444,26.085069444444443,0)" xlink:href="#v"/><use transform="matrix(0.010850694444444444,0,0,0.010850694444444444,33.463541666666664,0)" xlink:href="#u"/><use transform="matrix(0.010850694444444444,0,0,0.010850694444444444,45.94184027777778,0)" xlink:href="#M"/><use transform="matrix(0.010850694444444444,0,0,0.010850694444444444,59.765624999999986,0)" xlink:href="#u"/><use transform="matrix(0.010850694444444444,0,0,0.010850694444444444,72.2439236111111,0)" xlink:href="#G"/><use transform="matrix(0.010850694444444444,0,0,0.010850694444444444,83.97352430555554,0)" xlink:href="#t"/></g><path d="M180 0v-1490h510c348 0 508 209 508 474 0 266-160 477-507 477H370V0H180zm190-706h312c236 0 327-133 327-310 0-176-91-307-329-307H370v617" id="N"/><g id="h"><use transform="matrix(0.010850694444444444,0,0,0.010850694444444444,0,0)" xlink:href="#N"/><use transform="matrix(0.010850694444444444,0,0,0.010850694444444444,14.192708333333332,0)" xlink:href="#u"/><use transform="matrix(0.010850694444444444,0,0,0.010850694444444444,26.671006944444443,0)" xlink:href="#s"/><use transform="matrix(0.010850694444444444,0,0,0.010850694444444444,35.03689236111111,0)" xlink:href="#G"/><use transform="matrix(0.010850694444444444,0,0,0.010850694444444444,46.76649305555556,0)" xlink:href="#t"/></g><path d="M600 0L52-1490h200c166 485 304 806 458 1336 156-533 285-846 449-1336h202L819 0H600" id="O"/><path d="M180 0v-1490h901v168H370v510h643v168H370V0H180" id="P"/><g id="i"><use transform="matrix(0.010850694444444444,0,0,0.010850694444444444,0,0)" xlink:href="#O"/><use transform="matrix(0.010850694444444444,0,0,0.010850694444444444,14.583333333333332,0)" xlink:href="#r"/><use transform="matrix(0.010850694444444444,0,0,0.010850694444444444,30.81597222222222,0)" xlink:href="#P"/></g><path d="M678-1118v154H420V0H240v-964H20v-154h220v-149c0-194 155-293 318-293 85 0 141 18 168 30l-50 154c-19-6-47-17-97-17-111 0-159 58-159 166v109h258" id="Q"/><g id="j"><use transform="matrix(0.010850694444444444,0,0,0.010850694444444444,0,0)" xlink:href="#Q"/><use transform="matrix(0.010850694444444444,0,0,0.010850694444444444,8.22482638888889,0)" xlink:href="#C"/><use transform="matrix(0.010850694444444444,0,0,0.010850694444444444,13.606770833333332,0)" xlink:href="#J"/><use transform="matrix(0.010850694444444444,0,0,0.010850694444444444,18.98871527777778,0)" xlink:href="#t"/><use transform="matrix(0.010850694444444444,0,0,0.010850694444444444,31.944444444444443,0)" xlink:href="#G"/></g><path d="M180 0v-1490h190v1322h690V0H180" id="R"/><g id="k"><use transform="matrix(0.010850694444444444,0,0,0.010850694444444444,0,0)" xlink:href="#R"/><use transform="matrix(0.010850694444444444,0,0,0.010850694444444444,12.565104166666666,0)" xlink:href="#z"/><use transform="matrix(0.010850694444444444,0,0,0.010850694444444444,26.106770833333332,0)" xlink:href="#u"/><use transform="matrix(0.010850694444444444,0,0,0.010850694444444444,38.58506944444444,0)" xlink:href="#L"/></g><g id="l"><use transform="matrix(0.010850694444444444,0,0,0.010850694444444444,0,0)" xlink:href="#A"/><use transform="matrix(0.010850694444444444,0,0,0.010850694444444444,13.129340277777777,0)" xlink:href="#z"/><use transform="matrix(0.010850694444444444,0,0,0.010850694444444444,26.453993055555554,0)" xlink:href="#L"/><use transform="matrix(0.010850694444444444,0,0,0.010850694444444444,40.060763888888886,0)" xlink:href="#t"/></g><path d="M537 14c-226 0-379-139-379-422v-710h180v695c0 172 97 275 253 275 160 0 281-109 281-300v-670h181V0H879v-209C806-46 684 14 537 14" id="S"/><g id="m"><use transform="matrix(0.010850694444444444,0,0,0.010850694444444444,0,0)" xlink:href="#D"/><use transform="matrix(0.010850694444444444,0,0,0.010850694444444444,19.466145833333332,0)" xlink:href="#z"/><use transform="matrix(0.010850694444444444,0,0,0.010850694444444444,32.79079861111111,0)" xlink:href="#L"/><use transform="matrix(0.010850694444444444,0,0,0.010850694444444444,46.39756944444444,0)" xlink:href="#S"/><use transform="matrix(0.010850694444444444,0,0,0.010850694444444444,59.537760416666664,0)" xlink:href="#J"/><use transform="matrix(0.010850694444444444,0,0,0.010850694444444444,64.91970486111111,0)" xlink:href="#t"/><use transform="matrix(0.010850694444444444,0,0,0.010850694444444444,77.87543402777779,0)" xlink:href="#G"/></g><path d="M657 26c-323 0-524-166-541-416h195c15 169 171 246 346 246 202 0 356-106 356-265 5-203-294-238-475-293-239-73-380-191-380-389 0-252 224-419 512-419 294 0 499 171 508 396H992c-17-145-151-228-328-228-193 0-321 102-321 242 0 156 175 211 284 241l149 41c160 44 422 134 422 412 0 244-197 432-541 432" id="T"/><g id="n"><use transform="matrix(0.010850694444444444,0,0,0.010850694444444444,0,0)" xlink:href="#T"/><use transform="matrix(0.010850694444444444,0,0,0.010850694444444444,14.2578125,0)" xlink:href="#v"/><use transform="matrix(0.010850694444444444,0,0,0.010850694444444444,21.63628472222222,0)" xlink:href="#u"/><use transform="matrix(0.010850694444444444,0,0,0.010850694444444444,34.11458333333333,0)" xlink:href="#s"/><use transform="matrix(0.010850694444444444,0,0,0.010850694444444444,42.827690972222214,0)" xlink:href="#v"/></g><g id="o"><use transform="matrix(0.010850694444444444,0,0,0.010850694444444444,0,0)" xlink:href="#G"/><use transform="matrix(0.010850694444444444,0,0,0.010850694444444444,11.729600694444445,0)" xlink:href="#t"/><use transform="matrix(0.010850694444444444,0,0,0.010850694444444444,24.68532986111111,0)" xlink:href="#s"/><use transform="matrix(0.010850694444444444,0,0,0.010850694444444444,33.3984375,0)" xlink:href="#B"/><use transform="matrix(0.010850694444444444,0,0,0.010850694444444444,45.45355902777778,0)" xlink:href="#t"/><use transform="matrix(0.010850694444444444,0,0,0.010850694444444444,58.40928819444444,0)" xlink:href="#s"/></g><path d="M180 0v-1490h908v168H370v486h669v168H370v500h727V0H180" id="U"/><g id="p"><use transform="matrix(0.010850694444444444,0,0,0.010850694444444444,0,0)" xlink:href="#U"/><use transform="matrix(0.010850694444444444,0,0,0.010850694444444444,13.35720486111111,0)" xlink:href="#A"/><use transform="matrix(0.010850694444444444,0,0,0.010850694444444444,26.48654513888889,0)" xlink:href="#L"/><use transform="matrix(0.010850694444444444,0,0,0.010850694444444444,40.093315972222214,0)" xlink:href="#w"/><use transform="matrix(0.010850694444444444,0,0,0.010850694444444444,53.70008680555554,0)" xlink:href="#z"/><use transform="matrix(0.010850694444444444,0,0,0.010850694444444444,67.02473958333331,0)" xlink:href="#C"/><use transform="matrix(0.010850694444444444,0,0,0.010850694444444444,72.40668402777776,0)" xlink:href="#A"/><use transform="matrix(0.010850694444444444,0,0,0.010850694444444444,85.53602430555553,0)" xlink:href="#v"/></g><path fill="#333" d="M818-733v240H140v-240h678" id="V"/><path fill="#333" d="M572 22C302 22 117-98 78-306l279-48c29 105 101 156 224 156 114 0 185-48 185-115 0-118-228-130-337-155-215-49-322-150-322-317 0-215 187-347 470-347 265 0 424 116 466 298l-266 47c-24-76-87-130-196-130-98 0-174 46-174 113 0 56 38 95 144 117l201 40c216 44 320 143 320 302 0 220-207 367-500 367" id="W"/><path fill="#333" d="M633 22C291 22 81-200 81-553c0-345 210-579 537-579 292 0 525 185 525 567v84H378c7 183 109 277 260 277 105 0 184-46 216-132l272 51C1071-99 893 22 633 22zM380-669h474c-15-146-94-237-233-237-143 0-229 99-241 237" id="X"/><path fill="#333" d="M128 0v-1118h290v195h12c54-169 184-238 367-200v268c-27-8-86-15-130-15-138 0-239 95-239 234V0H128" id="Y"/><path fill="#333" d="M443 0L31-1118h319c90 293 199 572 268 885 66-313 175-593 264-885h315L784 0H443" id="Z"/><path fill="#333" d="M628 22C291 22 81-210 81-554c0-346 210-578 547-578 336 0 547 232 547 578 0 344-211 576-547 576zm0-236c160 0 242-146 242-341 0-197-82-341-242-341S387-753 387-555c0 195 81 341 241 341" id="aa"/><path fill="#333" d="M428-647V0H128v-1118h283l4 231c63-156 176-245 348-245 232 0 384 159 384 421V0H847v-659c0-139-76-222-202-222-128 0-217 86-217 234" id="ab"/><path fill="#333" d="M428-1490V0H128v-1490h300" id="ac"/><path fill="#333" d="M120 396l69-226c123 42 245 23 254-107l8-60L31-1118h319c87 288 199 559 259 872 72-308 185-583 277-872h315L726 132c-68 181-186 294-410 294-79 0-153-13-196-30" id="ad"/><g id="q"><use transform="matrix(0.013020833333333334,0,0,0.013020833333333334,0,0)" xlink:href="#V"/><use transform="matrix(0.013020833333333334,0,0,0.013020833333333334,12.473958333333334,0)" xlink:href="#V"/><use transform="matrix(0.013020833333333334,0,0,0.013020833333333334,24.947916666666668,0)" xlink:href="#W"/><use transform="matrix(0.013020833333333334,0,0,0.013020833333333334,39.8828125,0)" xlink:href="#X"/><use transform="matrix(0.013020833333333334,0,0,0.013020833333333334,55.76822916666667,0)" xlink:href="#Y"/><use transform="matrix(0.013020833333333334,0,0,0.013020833333333334,67.04427083333334,0)" xlink:href="#Z"/><use transform="matrix(0.013020833333333334,0,0,0.013020833333333334,82.55208333333334,0)" xlink:href="#X"/><use transform="matrix(0.013020833333333334,0,0,0.013020833333333334,98.43750000000001,0)" xlink:href="#Y"/><use transform="matrix(0.013020833333333334,0,0,0.013020833333333334,108.3203125,0)" xlink:href="#V"/><use transform="matrix(0.013020833333333334,0,0,0.013020833333333334,120.79427083333334,0)" xlink:href="#aa"/><use transform="matrix(0.013020833333333334,0,0,0.013020833333333334,137.1484375,0)" xlink:href="#ab"/><use transform="matrix(0.013020833333333334,0,0,0.013020833333333334,153.75,0)" xlink:href="#ac"/><use transform="matrix(0.013020833333333334,0,0,0.013020833333333334,161.25,0)" xlink:href="#ad"/></g></defs></g></svg>