<svg xmlns="http://www.w3.org/2000/svg" xmlns:xlink="http://www.w3.org/1999/xlink" xmlns:lucid="lucid" width="833.11" height="496.43"><g transform="translate(1080.9619429226655 191.50000037697092)" lucid:page-tab-id="jifVo639zqUY"><path d="M-1037.96-154a6 6 0 0 1 6-6h324.6a6 6 0 0 1 6 6V24a6 6 0 0 1-6 6h-324.6a6 6 0 0 1-6-6z" fill="#fff"/><path d="M-1037.96-154a6 6 0 0 1 6-6h324.6a6 6 0 0 1 6 6V24a6 6 0 0 1-6 6h-324.6a6 6 0 0 1-6-6zM-1037.96-120h336.6M-970.07-120V30M-824.05-120V30" stroke="#3a414a" stroke-width="3" fill="none"/><use xlink:href="#a" transform="matrix(1,0,0,1,-1027.9619873046877,-160) translate(102.32127929687499 26.089501953125)"/><use xlink:href="#b" transform="matrix(1,0,0,1,-1032.9619873046877,-117.5) translate(18.03072265625 18.589501953125)"/><use xlink:href="#c" transform="matrix(1,0,0,1,-965.0715283203126,-117.5) translate(0 18.589501953125)"/><use xlink:href="#d" transform="matrix(1,0,0,1,-819.0474462890627,-117.5) translate(0 18.589501953125)"/><use xlink:href="#e" transform="matrix(1,0,0,1,-1032.9619873046877,-87.5) translate(5.054770507812496 18.589501953125)"/><use xlink:href="#f" transform="matrix(1,0,0,1,-965.0715283203126,-87.5) translate(0 18.589501953125)"/><use xlink:href="#d" transform="matrix(1,0,0,1,-819.0474462890627,-87.5) translate(0 18.589501953125)"/><use xlink:href="#g" transform="matrix(1,0,0,1,-965.0715283203126,-57.5) translate(0 18.589501953125)"/><use xlink:href="#d" transform="matrix(1,0,0,1,-819.0474462890627,-57.5) translate(0 18.589501953125)"/><use xlink:href="#h" transform="matrix(1,0,0,1,-965.0715283203126,-27.5) translate(0 18.589501953125)"/><use xlink:href="#i" transform="matrix(1,0,0,1,-819.0474462890627,-27.5) translate(0 18.589501953125)"/><use xlink:href="#j" transform="matrix(1,0,0,1,-965.0715283203126,2.5) translate(0 18.589501953125)"/><use xlink:href="#i" transform="matrix(1,0,0,1,-819.0474462890627,2.5) translate(0 18.589501953125)"/><path d="M-1037.96 209.43a6 6 0 0 1 6-6h306.64a6 6 0 0 1 6 6v88a6 6 0 0 1-6 6h-306.64a6 6 0 0 1-6-6z" fill="#fff"/><path d="M-1037.96 209.43a6 6 0 0 1 6-6h306.64a6 6 0 0 1 6 6v88a6 6 0 0 1-6 6h-306.64a6 6 0 0 1-6-6zM-1037.96 243.43h318.64M-996.02 243.43v60M-842 243.43v60" stroke="#3a414a" stroke-width="3" fill="none"/><use xlink:href="#k" transform="matrix(1,0,0,1,-1027.9619873046877,203.42655521132428) translate(112.8935107421875 26.089501953125)"/><use xlink:href="#b" transform="matrix(1,0,0,1,-1032.9619873046877,245.92655521132428) translate(5.030722656249999 18.589501953125)"/><use xlink:href="#f" transform="matrix(1,0,0,1,-991.0234326171877,245.92655521132428) translate(0 18.589501953125)"/><use xlink:href="#d" transform="matrix(1,0,0,1,-837.0094335937499,245.92655521132428) translate(0 18.589501953125)"/><use xlink:href="#l" transform="matrix(1,0,0,1,-991.0234326171877,275.9265552113243) translate(0 18.589501953125)"/><use xlink:href="#m" transform="matrix(1,0,0,1,-837.0094335937499,275.9265552113243) translate(0 18.589501953125)"/><path d="M-1059.46 258.47h-14a6 6 0 0 1-6-6V-69a6 6 0 0 1 6-6h15.76M-1039.46 258.47h-20m0-10v20M-1040.13-75h-20m20-10l-20 10m20 10l-20-10" stroke="#3a414a" stroke-width="3" fill="none"/><path d="M-560-184a6 6 0 0 1 6-6h298.65a6 6 0 0 1 6 6v478a6 6 0 0 1-6 6H-554a6 6 0 0 1-6-6z" fill="#fff"/><path d="M-560-184a6 6 0 0 1 6-6h298.65a6 6 0 0 1 6 6v478a6 6 0 0 1-6 6H-554a6 6 0 0 1-6-6zM-560-150h310.65M-518.06-150v450M-372.04-150v450" stroke="#3a414a" stroke-width="3" fill="none"/><use xlink:href="#n" transform="matrix(1,0,0,1,-550,-190.00000037697092) translate(114.1084130859375 26.089501953125)"/><use xlink:href="#b" transform="matrix(1,0,0,1,-555,-147.50000037697092) translate(5.030722656249999 18.589501953125)"/><use xlink:href="#o" transform="matrix(1,0,0,1,-513.0614453125,-147.50000037697092) translate(0 18.589501953125)"/><use xlink:href="#i" transform="matrix(1,0,0,1,-367.03736328125,-147.50000037697092) translate(0 18.589501953125)"/><use xlink:href="#p" transform="matrix(1,0,0,1,-555,-117.50000037697092) translate(5.435327148437498 18.589501953125)"/><use xlink:href="#c" transform="matrix(1,0,0,1,-513.0614453125,-117.50000037697092) translate(0 18.589501953125)"/><use xlink:href="#d" transform="matrix(1,0,0,1,-367.03736328125,-117.50000037697092) translate(0 18.589501953125)"/><use xlink:href="#q" transform="matrix(1,0,0,1,-513.0614453125,-87.50000037697092) translate(0 18.589501953125)"/><use xlink:href="#i" transform="matrix(1,0,0,1,-367.03736328125,-87.50000037697092) translate(0 18.589501953125)"/><use xlink:href="#r" transform="matrix(1,0,0,1,-513.0614453125,-57.50000037697092) translate(0 18.589501953125)"/><use xlink:href="#d" transform="matrix(1,0,0,1,-367.03736328125,-57.50000037697092) translate(0 18.589501953125)"/><use xlink:href="#s" transform="matrix(1,0,0,1,-513.0614453125,-27.500000376970917) translate(0 18.589501953125)"/><use xlink:href="#d" transform="matrix(1,0,0,1,-367.03736328125,-27.500000376970917) translate(0 18.589501953125)"/><use xlink:href="#t" transform="matrix(1,0,0,1,-513.0614453125,2.4999996230290833) translate(0 18.589501953125)"/><use xlink:href="#d" transform="matrix(1,0,0,1,-367.03736328125,2.4999996230290833) translate(0 18.589501953125)"/><use xlink:href="#u" transform="matrix(1,0,0,1,-513.0614453125,32.49999962302908) translate(0 18.589501953125)"/><use xlink:href="#v" transform="matrix(1,0,0,1,-367.03736328125,32.49999962302908) translate(0 18.589501953125)"/><use xlink:href="#w" transform="matrix(1,0,0,1,-513.0614453125,62.49999962302908) translate(0 18.589501953125)"/><use xlink:href="#d" transform="matrix(1,0,0,1,-367.03736328125,62.49999962302908) translate(0 18.589501953125)"/><use xlink:href="#x" transform="matrix(1,0,0,1,-513.0614453125,92.49999962302908) translate(0 18.589501953125)"/><use xlink:href="#m" transform="matrix(1,0,0,1,-367.03736328125,92.49999962302908) translate(0 18.589501953125)"/><use xlink:href="#y" transform="matrix(1,0,0,1,-513.0614453125,122.49999962302908) translate(0 18.589501953125)"/><use xlink:href="#m" transform="matrix(1,0,0,1,-367.03736328125,122.49999962302908) translate(0 18.589501953125)"/><use xlink:href="#z" transform="matrix(1,0,0,1,-513.0614453125,152.49999962302908) translate(0 18.589501953125)"/><use xlink:href="#m" transform="matrix(1,0,0,1,-367.03736328125,152.49999962302908) translate(0 18.589501953125)"/><use xlink:href="#A" transform="matrix(1,0,0,1,-513.0614453125,182.49999962302908) translate(0 18.589501953125)"/><use xlink:href="#m" transform="matrix(1,0,0,1,-367.03736328125,182.49999962302908) translate(0 18.589501953125)"/><use xlink:href="#B" transform="matrix(1,0,0,1,-513.0614453125,212.49999962302908) translate(0 18.589501953125)"/><use xlink:href="#C" transform="matrix(1,0,0,1,-367.03736328125,212.49999962302908) translate(0 18.589501953125)"/><use xlink:href="#p" transform="matrix(1,0,0,1,-555,242.49999962302908) translate(5.435327148437498 18.589501953125)"/><use xlink:href="#f" transform="matrix(1,0,0,1,-513.0614453125,242.49999962302908) translate(0 18.589501953125)"/><use xlink:href="#d" transform="matrix(1,0,0,1,-367.03736328125,242.49999962302908) translate(0 18.589501953125)"/><use xlink:href="#D" transform="matrix(1,0,0,1,-513.0614453125,272.4999996230291) translate(0 18.589501953125)"/><use xlink:href="#m" transform="matrix(1,0,0,1,-367.03736328125,272.4999996230291) translate(0 18.589501953125)"/><path d="M-679.86-105h100.13M-699.86-105h20m0 10v-20M-562.17-105h-20m20-10l-20 10m20 10l-20-10M-697.82 258.47h118.1M-717.82 258.47h20m0 10v-20M-562.17 258.47h-20m20-10l-20 10m20 10l-20-10" stroke="#3a414a" stroke-width="3" fill="none"/><defs><path d="M613 24c-304 0-509-231-509-576 0-350 205-580 509-580 216 0 392 114 453 309l-173 49c-33-115-133-197-280-197-223 0-326 196-326 419 0 220 103 415 326 415 150 0 252-85 285-206l172 49C1010-95 832 24 613 24" id="E"/><path d="M338-670V0H158v-1490h180v566c73-149 190-208 336-208 226 0 379 139 379 422V0H872v-695c0-172-96-275-252-275-161 0-282 109-282 300" id="F"/><path d="M158 0v-1118h174v172h12c41-113 157-188 290-188 26 0 70 2 91 3v181c-11-2-60-10-108-10-161 0-279 109-279 260V0H158" id="G"/><path d="M613 24c-304 0-509-231-509-576 0-350 205-580 509-580 305 0 511 230 511 580 0 345-206 576-511 576zm0-161c226 0 329-195 329-415 0-222-103-419-329-419-223 0-326 196-326 419 0 220 103 415 326 415" id="H"/><path d="M158 0v-1118h175l1 205c55-151 181-225 313-225 147 0 245 90 285 228 53-141 190-228 352-228 194 0 352 125 352 384V0h-181v-749c0-161-105-225-225-225-151 0-243 103-243 244V0H807v-767c0-124-93-207-219-207-131 0-250 92-250 270V0H158" id="I"/><path d="M538 24C308 24 148-78 108-271l171-41c32 123 123 178 257 178 156 0 256-77 256-169 0-77-54-128-164-154l-186-44c-203-48-300-148-300-305 0-192 176-326 414-326 230 0 351 112 402 269l-163 42c-31-80-94-158-238-158-133 0-233 69-233 162 0 83 57 129 188 160l169 40c203 48 298 149 298 302 0 196-179 339-441 339" id="J"/><path d="M628 24c-324 0-524-230-524-574 0-343 198-582 503-582 237 0 487 146 487 559v75H286c9 234 145 362 343 362 132 0 231-58 273-172l174 48C1024-91 857 24 628 24zM287-650h624c-17-190-120-322-304-322-192 0-309 151-320 322" id="K"/><g id="a"><use transform="matrix(0.008173828125000001,0,0,0.008173828125000001,0,0)" xlink:href="#E"/><use transform="matrix(0.008173828125000001,0,0,0.008173828125000001,9.563378906250001,0)" xlink:href="#F"/><use transform="matrix(0.008173828125000001,0,0,0.008173828125000001,19.461884765625,0)" xlink:href="#G"/><use transform="matrix(0.008173828125000001,0,0,0.008173828125000001,25.48599609375,0)" xlink:href="#H"/><use transform="matrix(0.008173828125000001,0,0,0.008173828125000001,35.523457031250004,0)" xlink:href="#I"/><use transform="matrix(0.008173828125000001,0,0,0.008173828125000001,50.1873046875,0)" xlink:href="#H"/><use transform="matrix(0.008173828125000001,0,0,0.008173828125000001,60.224765624999996,0)" xlink:href="#J"/><use transform="matrix(0.008173828125000001,0,0,0.008173828125000001,69.060673828125,0)" xlink:href="#H"/><use transform="matrix(0.008173828125000001,0,0,0.008173828125000001,79.098134765625,0)" xlink:href="#I"/><use transform="matrix(0.008173828125000001,0,0,0.008173828125000001,93.76198242187502,0)" xlink:href="#K"/><use transform="matrix(0.008173828125000001,0,0,0.008173828125000001,103.521533203125,0)" xlink:href="#J"/></g><path d="M180 0v-1490h510c348 0 508 209 508 474 0 266-160 477-507 477H370V0H180zm190-706h312c236 0 327-133 327-310 0-176-91-307-329-307H370v617" id="L"/><path d="M180 0v-1490h190c0 262 1 526-3 784 217-279 467-523 702-784h249L716-845 1319 0h-225L585-716 370-489V0H180" id="M"/><g id="b"><use transform="matrix(0.008173828125000001,0,0,0.008173828125000001,0,0)" xlink:href="#L"/><use transform="matrix(0.008173828125000001,0,0,0.008173828125000001,10.691367187500001,0)" xlink:href="#M"/></g><path d="M934 0v166H0V0h934" id="N"/><path d="M158 0v-1118h180V0H158zm91-1301c-68 0-125-53-125-119s57-119 125-119c69 0 126 53 126 119s-57 119-126 119" id="O"/><path d="M577 24c-279 0-473-224-473-580 0-354 195-576 474-576 218 0 287 134 324 193h14v-551h180V0H922v-173h-20C865-111 790 24 577 24zm27-161c203 0 314-172 314-421 0-247-108-413-314-413-212 0-317 181-317 413 0 235 108 421 317 421" id="P"/><g id="c"><use transform="matrix(0.008173828125000001,0,0,0.008173828125000001,0,0)" xlink:href="#E"/><use transform="matrix(0.008173828125000001,0,0,0.008173828125000001,9.563378906250001,0)" xlink:href="#F"/><use transform="matrix(0.008173828125000001,0,0,0.008173828125000001,19.461884765625,0)" xlink:href="#G"/><use transform="matrix(0.008173828125000001,0,0,0.008173828125000001,25.48599609375,0)" xlink:href="#H"/><use transform="matrix(0.008173828125000001,0,0,0.008173828125000001,35.523457031250004,0)" xlink:href="#I"/><use transform="matrix(0.008173828125000001,0,0,0.008173828125000001,50.1873046875,0)" xlink:href="#H"/><use transform="matrix(0.008173828125000001,0,0,0.008173828125000001,60.224765624999996,0)" xlink:href="#J"/><use transform="matrix(0.008173828125000001,0,0,0.008173828125000001,69.060673828125,0)" xlink:href="#H"/><use transform="matrix(0.008173828125000001,0,0,0.008173828125000001,79.098134765625,0)" xlink:href="#I"/><use transform="matrix(0.008173828125000001,0,0,0.008173828125000001,93.76198242187502,0)" xlink:href="#K"/><use transform="matrix(0.008173828125000001,0,0,0.008173828125000001,103.521533203125,0)" xlink:href="#N"/><use transform="matrix(0.008173828125000001,0,0,0.008173828125000001,111.7198828125,0)" xlink:href="#O"/><use transform="matrix(0.008173828125000001,0,0,0.008173828125000001,115.77410156250001,0)" xlink:href="#P"/></g><path d="M481 0L54-1118h197c107 314 236 620 325 951 87-331 217-637 324-951h197L670 0H481" id="Q"/><path d="M471 26C259 26 90-98 90-318c0-256 228-303 435-329 202-27 287-16 287-108 0-139-79-219-234-219-161 0-248 86-283 164l-173-57c86-203 278-265 451-265 150 0 419 46 419 395V0H815v-152h-12C765-73 660 26 471 26zm31-159c199 0 310-134 310-271v-155c-30 35-226 55-295 64-131 17-246 59-246 186 0 116 97 176 231 176" id="R"/><path d="M218-607c0-325 108-727 258-974h175c-155 315-250 682-250 974 0 265 78 531 250 886H476C306-10 218-315 218-607" id="S"/><path d="M154 0v-137l495-537c165-179 249-281 249-418 0-156-121-253-280-253-170 0-278 110-278 278H158c0-264 200-443 465-443 266 0 455 183 455 416 0 161-73 288-336 568L416-179v12h687V0H154" id="T"/><path d="M626 20c-262 0-458-168-468-396h184c12 133 134 229 284 229 180 0 311-137 311-326 0-192-136-335-323-335-92 0-196 33-255 78l-178-22 88-738h784v167H429l-51 435h8c61-51 160-87 263-87 273 0 474 211 474 499 0 286-210 496-497 496" id="U"/><path d="M96 279C273-86 346-350 346-607c0-292-95-659-250-974h175c150 246 258 650 258 974 0 297-91 602-258 886H96" id="V"/><g id="d"><use transform="matrix(0.008173828125000001,0,0,0.008173828125000001,0,0)" xlink:href="#Q"/><use transform="matrix(0.008173828125000001,0,0,0.008173828125000001,9.326337890625,0)" xlink:href="#R"/><use transform="matrix(0.008173828125000001,0,0,0.008173828125000001,18.726240234375002,0)" xlink:href="#G"/><use transform="matrix(0.008173828125000001,0,0,0.008173828125000001,24.7503515625,0)" xlink:href="#E"/><use transform="matrix(0.008173828125000001,0,0,0.008173828125000001,34.31373046875,0)" xlink:href="#F"/><use transform="matrix(0.008173828125000001,0,0,0.008173828125000001,44.212236328125,0)" xlink:href="#R"/><use transform="matrix(0.008173828125000001,0,0,0.008173828125000001,53.612138671875,0)" xlink:href="#G"/><use transform="matrix(0.008173828125000001,0,0,0.008173828125000001,59.914160156250006,0)" xlink:href="#S"/><use transform="matrix(0.008173828125000001,0,0,0.008173828125000001,66.020009765625,0)" xlink:href="#T"/><use transform="matrix(0.008173828125000001,0,0,0.008173828125000001,76.22912109375001,0)" xlink:href="#U"/><use transform="matrix(0.008173828125000001,0,0,0.008173828125000001,86.40553710937502,0)" xlink:href="#U"/><use transform="matrix(0.008173828125000001,0,0,0.008173828125000001,96.58195312500001,0)" xlink:href="#V"/></g><path d="M128 359l88-567h206L266 359H128" id="W"/><path d="M180 0v-1490h901v168H370v510h643v168H370V0H180" id="X"/><g id="e"><use transform="matrix(0.008173828125000001,0,0,0.008173828125000001,0,0)" xlink:href="#L"/><use transform="matrix(0.008173828125000001,0,0,0.008173828125000001,10.691367187500001,0)" xlink:href="#M"/><use transform="matrix(0.008173828125000001,0,0,0.008173828125000001,21.9385546875,0)" xlink:href="#W"/><use transform="matrix(0.008173828125000001,0,0,0.008173828125000001,26.76111328125,0)" xlink:href="#X"/><use transform="matrix(0.008173828125000001,0,0,0.008173828125000001,36.643271484375006,0)" xlink:href="#M"/></g><path d="M611 442c-248 0-391-105-460-228l146-94c47 65 117 165 314 165 178 0 307-82 307-266v-224h-17C863-141 792-18 576-18c-268 0-472-195-472-546 0-346 197-568 476-568 216 0 288 133 326 193h17v-179h175V29c0 289-215 413-487 413zm-5-620c203 0 314-146 314-390 0-237-108-403-314-403-213 0-319 180-319 403 0 230 109 390 319 390" id="Y"/><path d="M338-670V0H158v-1118h173l1 207c72-158 192-221 342-221 226 0 378 139 378 422V0H872v-695c0-172-96-275-252-275-161 0-282 109-282 300" id="Z"/><g id="f"><use transform="matrix(0.008173828125000001,0,0,0.008173828125000001,0,0)" xlink:href="#Y"/><use transform="matrix(0.008173828125000001,0,0,0.008173828125000001,10.266328125000001,0)" xlink:href="#K"/><use transform="matrix(0.008173828125000001,0,0,0.008173828125000001,20.02587890625,0)" xlink:href="#Z"/><use transform="matrix(0.008173828125000001,0,0,0.008173828125000001,29.9162109375,0)" xlink:href="#H"/><use transform="matrix(0.008173828125000001,0,0,0.008173828125000001,39.953671875,0)" xlink:href="#I"/><use transform="matrix(0.008173828125000001,0,0,0.008173828125000001,54.61751953125,0)" xlink:href="#K"/><use transform="matrix(0.008173828125000001,0,0,0.008173828125000001,64.3770703125,0)" xlink:href="#N"/><use transform="matrix(0.008173828125000001,0,0,0.008173828125000001,72.575419921875,0)" xlink:href="#O"/><use transform="matrix(0.008173828125000001,0,0,0.008173828125000001,76.629638671875,0)" xlink:href="#P"/></g><path d="M678-1118v154H420V0H240v-964H20v-154h220v-149c0-194 155-293 318-293 85 0 141 18 168 30l-50 154c-19-6-47-17-97-17-111 0-159 58-159 166v109h258" id="aa"/><g id="g"><use transform="matrix(0.008173828125000001,0,0,0.008173828125000001,0,0)" xlink:href="#G"/><use transform="matrix(0.008173828125000001,0,0,0.008173828125000001,6.0241113281250005,0)" xlink:href="#K"/><use transform="matrix(0.008173828125000001,0,0,0.008173828125000001,15.783662109375001,0)" xlink:href="#aa"/><use transform="matrix(0.008173828125000001,0,0,0.008173828125000001,21.488994140625003,0)" xlink:href="#K"/><use transform="matrix(0.008173828125000001,0,0,0.008173828125000001,31.248544921875002,0)" xlink:href="#G"/><use transform="matrix(0.008173828125000001,0,0,0.008173828125000001,37.27265625,0)" xlink:href="#K"/><use transform="matrix(0.008173828125000001,0,0,0.008173828125000001,47.032207031249996,0)" xlink:href="#Z"/><use transform="matrix(0.008173828125000001,0,0,0.008173828125000001,56.92253906249999,0)" xlink:href="#E"/><use transform="matrix(0.008173828125000001,0,0,0.008173828125000001,66.48591796874999,0)" xlink:href="#K"/></g><path d="M598-1118v154H368v674c0 100 37 144 132 144 23 0 62-6 92-12L629-6c-37 13-88 20-134 20-193 0-307-107-307-290v-688H20v-154h168v-266h180v266h230" id="ab"/><g id="h"><use transform="matrix(0.008173828125000001,0,0,0.008173828125000001,0,0)" xlink:href="#J"/><use transform="matrix(0.008173828125000001,0,0,0.008173828125000001,8.835908203125001,0)" xlink:href="#ab"/><use transform="matrix(0.008173828125000001,0,0,0.008173828125000001,14.394111328125003,0)" xlink:href="#R"/><use transform="matrix(0.008173828125000001,0,0,0.008173828125000001,23.794013671875007,0)" xlink:href="#G"/><use transform="matrix(0.008173828125000001,0,0,0.008173828125000001,30.357597656250007,0)" xlink:href="#ab"/></g><g id="i"><use transform="matrix(0.008173828125000001,0,0,0.008173828125000001,0,0)" xlink:href="#O"/><use transform="matrix(0.008173828125000001,0,0,0.008173828125000001,4.05421875,0)" xlink:href="#Z"/><use transform="matrix(0.008173828125000001,0,0,0.008173828125000001,13.944550781250001,0)" xlink:href="#ab"/></g><g id="j"><use transform="matrix(0.008173828125000001,0,0,0.008173828125000001,0,0)" xlink:href="#K"/><use transform="matrix(0.008173828125000001,0,0,0.008173828125000001,9.75955078125,0)" xlink:href="#Z"/><use transform="matrix(0.008173828125000001,0,0,0.008173828125000001,19.649882812500003,0)" xlink:href="#P"/></g><g id="k"><use transform="matrix(0.008173828125000001,0,0,0.008173828125000001,0,0)" xlink:href="#Y"/><use transform="matrix(0.008173828125000001,0,0,0.008173828125000001,10.266328125000001,0)" xlink:href="#K"/><use transform="matrix(0.008173828125000001,0,0,0.008173828125000001,20.02587890625,0)" xlink:href="#Z"/><use transform="matrix(0.008173828125000001,0,0,0.008173828125000001,29.9162109375,0)" xlink:href="#H"/><use transform="matrix(0.008173828125000001,0,0,0.008173828125000001,39.953671875,0)" xlink:href="#I"/><use transform="matrix(0.008173828125000001,0,0,0.008173828125000001,54.61751953125,0)" xlink:href="#K"/><use transform="matrix(0.008173828125000001,0,0,0.008173828125000001,64.3770703125,0)" xlink:href="#J"/></g><path d="M157-1118h181V80c1 225-123 350-364 338V252c126 9 184-48 183-172v-1198zm91-183c-68 0-125-53-125-119s57-119 125-119c69 0 126 53 126 119s-57 119-126 119" id="ac"/><g id="l"><use transform="matrix(0.008173828125000001,0,0,0.008173828125000001,0,0)" xlink:href="#I"/><use transform="matrix(0.008173828125000001,0,0,0.008173828125000001,14.663847656250002,0)" xlink:href="#K"/><use transform="matrix(0.008173828125000001,0,0,0.008173828125000001,24.42339843750001,0)" xlink:href="#ab"/><use transform="matrix(0.008173828125000001,0,0,0.008173828125000001,29.981601562500007,0)" xlink:href="#R"/><use transform="matrix(0.008173828125000001,0,0,0.008173828125000001,39.38150390625001,0)" xlink:href="#P"/><use transform="matrix(0.008173828125000001,0,0,0.008173828125000001,49.631484375000014,0)" xlink:href="#R"/><use transform="matrix(0.008173828125000001,0,0,0.008173828125000001,59.031386718750014,0)" xlink:href="#ab"/><use transform="matrix(0.008173828125000001,0,0,0.008173828125000001,64.58958984375,0)" xlink:href="#R"/><use transform="matrix(0.008173828125000001,0,0,0.008173828125000001,73.9894921875,0)" xlink:href="#N"/><use transform="matrix(0.008173828125000001,0,0,0.008173828125000001,83.234091796875,0)" xlink:href="#ac"/><use transform="matrix(0.008173828125000001,0,0,0.008173828125000001,87.28831054687501,0)" xlink:href="#J"/><use transform="matrix(0.008173828125000001,0,0,0.008173828125000001,96.12421875000001,0)" xlink:href="#H"/><use transform="matrix(0.008173828125000001,0,0,0.008173828125000001,106.16167968750001,0)" xlink:href="#Z"/></g><path d="M65 0l393-574-370-544h210c88 136 192 297 267 435 67-142 176-302 264-435h206L661-564 1053 0H844c-94-144-206-310-287-458C484-308 366-142 273 0H65" id="ad"/><path d="M646 20c-249 0-524-159-524-708 0-524 209-822 547-822 250 0 431 161 467 395H950c-33-129-126-227-281-227-229 0-367 208-367 566h12c80-124 212-198 367-198 255 0 467 205 467 493 0 278-198 501-502 501zm0-167c179 0 318-148 318-334 0-182-133-328-313-328-181 0-322 156-322 330 0 176 134 332 317 332" id="ae"/><path d="M635 20c-292 0-500-160-510-396h192c11 142 145 229 315 229 187 0 323-105 323-260 0-161-125-274-346-274H488v-165h121c174 0 294-100 294-254 0-148-104-245-266-245-152 0-291 85-297 230H157c8-234 222-395 484-395 278 0 448 188 448 400 0 168-95 291-247 336v12c190 31 301 169 301 357 0 244-216 425-508 425" id="af"/><g id="m"><use transform="matrix(0.008173828125000001,0,0,0.008173828125000001,0,0)" xlink:href="#ab"/><use transform="matrix(0.008173828125000001,0,0,0.008173828125000001,5.312988281250001,0)" xlink:href="#K"/><use transform="matrix(0.008173828125000001,0,0,0.008173828125000001,14.696542968750002,0)" xlink:href="#ad"/><use transform="matrix(0.008173828125000001,0,0,0.008173828125000001,24.1618359375,0)" xlink:href="#ab"/><use transform="matrix(0.008173828125000001,0,0,0.008173828125000001,29.638300781250003,0)" xlink:href="#S"/><use transform="matrix(0.008173828125000001,0,0,0.008173828125000001,35.744150390625,0)" xlink:href="#ae"/><use transform="matrix(0.008173828125000001,0,0,0.008173828125000001,46.124912109375,0)" xlink:href="#U"/><use transform="matrix(0.008173828125000001,0,0,0.008173828125000001,56.301328125000005,0)" xlink:href="#U"/><use transform="matrix(0.008173828125000001,0,0,0.008173828125000001,66.477744140625,0)" xlink:href="#af"/><use transform="matrix(0.008173828125000001,0,0,0.008173828125000001,76.81763671875001,0)" xlink:href="#U"/><use transform="matrix(0.008173828125000001,0,0,0.008173828125000001,86.994052734375,0)" xlink:href="#V"/></g><g id="n"><use transform="matrix(0.008173828125000001,0,0,0.008173828125000001,0,0)" xlink:href="#Q"/><use transform="matrix(0.008173828125000001,0,0,0.008173828125000001,9.326337890625,0)" xlink:href="#R"/><use transform="matrix(0.008173828125000001,0,0,0.008173828125000001,18.726240234375002,0)" xlink:href="#G"/><use transform="matrix(0.008173828125000001,0,0,0.008173828125000001,25.289824218750002,0)" xlink:href="#O"/><use transform="matrix(0.008173828125000001,0,0,0.008173828125000001,29.344042968750003,0)" xlink:href="#R"/><use transform="matrix(0.008173828125000001,0,0,0.008173828125000001,38.7439453125,0)" xlink:href="#Z"/><use transform="matrix(0.008173828125000001,0,0,0.008173828125000001,48.63427734375,0)" xlink:href="#ab"/><use transform="matrix(0.008173828125000001,0,0,0.008173828125000001,53.947265625,0)" xlink:href="#J"/></g><g id="o"><use transform="matrix(0.008173828125000001,0,0,0.008173828125000001,0,0)" xlink:href="#Q"/><use transform="matrix(0.008173828125000001,0,0,0.008173828125000001,9.326337890625,0)" xlink:href="#R"/><use transform="matrix(0.008173828125000001,0,0,0.008173828125000001,18.726240234375002,0)" xlink:href="#G"/><use transform="matrix(0.008173828125000001,0,0,0.008173828125000001,25.289824218750002,0)" xlink:href="#O"/><use transform="matrix(0.008173828125000001,0,0,0.008173828125000001,29.344042968750003,0)" xlink:href="#K"/><use transform="matrix(0.008173828125000001,0,0,0.008173828125000001,39.10359375,0)" xlink:href="#Z"/><use transform="matrix(0.008173828125000001,0,0,0.008173828125000001,48.99392578125,0)" xlink:href="#ab"/><use transform="matrix(0.008173828125000001,0,0,0.008173828125000001,54.470390625,0)" xlink:href="#N"/><use transform="matrix(0.008173828125000001,0,0,0.008173828125000001,62.668740234375,0)" xlink:href="#O"/><use transform="matrix(0.008173828125000001,0,0,0.008173828125000001,66.722958984375,0)" xlink:href="#P"/></g><g id="p"><use transform="matrix(0.008173828125000001,0,0,0.008173828125000001,0,0)" xlink:href="#X"/><use transform="matrix(0.008173828125000001,0,0,0.008173828125000001,9.882158203125002,0)" xlink:href="#M"/></g><path d="M158 418v-1536h174v179h20c37-59 106-193 324-193 279 0 474 222 474 576 0 356-194 580-473 580-213 0-288-135-325-197h-14v591H158zm492-555c209 0 317-186 317-421 0-232-105-413-317-413-206 0-314 166-314 413 0 249 111 421 314 421" id="ag"/><g id="q"><use transform="matrix(0.008173828125000001,0,0,0.008173828125000001,0,0)" xlink:href="#ag"/><use transform="matrix(0.008173828125000001,0,0,0.008173828125000001,10.249980468750001,0)" xlink:href="#H"/><use transform="matrix(0.008173828125000001,0,0,0.008173828125000001,20.287441406250004,0)" xlink:href="#J"/><use transform="matrix(0.008173828125000001,0,0,0.008173828125000001,29.123349609375005,0)" xlink:href="#O"/><use transform="matrix(0.008173828125000001,0,0,0.008173828125000001,33.177568359375,0)" xlink:href="#ab"/><use transform="matrix(0.008173828125000001,0,0,0.008173828125000001,38.654033203125,0)" xlink:href="#O"/><use transform="matrix(0.008173828125000001,0,0,0.008173828125000001,42.708251953125,0)" xlink:href="#H"/><use transform="matrix(0.008173828125000001,0,0,0.008173828125000001,52.745712890625,0)" xlink:href="#Z"/></g><g id="r"><use transform="matrix(0.008173828125000001,0,0,0.008173828125000001,0,0)" xlink:href="#Q"/><use transform="matrix(0.008173828125000001,0,0,0.008173828125000001,9.081123046875001,0)" xlink:href="#E"/><use transform="matrix(0.008173828125000001,0,0,0.008173828125000001,18.644501953125,0)" xlink:href="#aa"/><use transform="matrix(0.008173828125000001,0,0,0.008173828125000001,24.603222656250004,0)" xlink:href="#N"/><use transform="matrix(0.008173828125000001,0,0,0.008173828125000001,32.801572265625005,0)" xlink:href="#O"/><use transform="matrix(0.008173828125000001,0,0,0.008173828125000001,36.855791015625,0)" xlink:href="#P"/></g><g id="s"><use transform="matrix(0.008173828125000001,0,0,0.008173828125000001,0,0)" xlink:href="#G"/><use transform="matrix(0.008173828125000001,0,0,0.008173828125000001,6.0241113281250005,0)" xlink:href="#K"/><use transform="matrix(0.008173828125000001,0,0,0.008173828125000001,15.783662109375001,0)" xlink:href="#aa"/></g><path d="M338-1490V0H158v-1490h180" id="ah"/><g id="t"><use transform="matrix(0.008173828125000001,0,0,0.008173828125000001,0,0)" xlink:href="#R"/><use transform="matrix(0.008173828125000001,0,0,0.008173828125000001,9.399902343750002,0)" xlink:href="#ah"/><use transform="matrix(0.008173828125000001,0,0,0.008173828125000001,13.699335937500004,0)" xlink:href="#ab"/></g><path d="M1096 418H916v-591h-14C865-111 790 24 577 24c-279 0-473-224-473-580 0-354 195-576 474-576 218 0 287 134 324 193h20v-179h174V418zM604-137c203 0 314-172 314-421 0-247-108-413-314-413-212 0-317 181-317 413 0 235 108 421 317 421" id="ai"/><path d="M537 14c-226 0-379-139-379-422v-710h180v695c0 172 97 275 253 275 160 0 281-109 281-300v-670h181V0H879v-209C806-46 684 14 537 14" id="aj"/><path d="M140 405l46-156c120 36 205 19 263-150l32-93L54-1118h197c107 313 237 620 324 950 87-331 219-637 326-950h196L606 167c-68 178-176 259-334 259-64 0-113-12-132-21" id="ak"/><g id="u"><use transform="matrix(0.008173828125000001,0,0,0.008173828125000001,0,0)" xlink:href="#ai"/><use transform="matrix(0.008173828125000001,0,0,0.008173828125000001,10.249980468750001,0)" xlink:href="#aj"/><use transform="matrix(0.008173828125000001,0,0,0.008173828125000001,20.148486328125003,0)" xlink:href="#R"/><use transform="matrix(0.008173828125000001,0,0,0.008173828125000001,29.548388671875003,0)" xlink:href="#ah"/><use transform="matrix(0.008173828125000001,0,0,0.008173828125000001,33.60260742187501,0)" xlink:href="#O"/><use transform="matrix(0.008173828125000001,0,0,0.008173828125000001,37.65682617187501,0)" xlink:href="#ab"/><use transform="matrix(0.008173828125000001,0,0,0.008173828125000001,43.460244140625015,0)" xlink:href="#ak"/></g><g id="v"><use transform="matrix(0.008173828125000001,0,0,0.008173828125000001,0,0)" xlink:href="#aa"/><use transform="matrix(0.008173828125000001,0,0,0.008173828125000001,6.195761718750001,0)" xlink:href="#ah"/><use transform="matrix(0.008173828125000001,0,0,0.008173828125000001,10.249980468750001,0)" xlink:href="#H"/><use transform="matrix(0.008173828125000001,0,0,0.008173828125000001,20.45091796875,0)" xlink:href="#R"/><use transform="matrix(0.008173828125000001,0,0,0.008173828125000001,29.850820312500005,0)" xlink:href="#ab"/></g><g id="w"><use transform="matrix(0.008173828125000001,0,0,0.008173828125000001,0,0)" xlink:href="#aa"/><use transform="matrix(0.008173828125000001,0,0,0.008173828125000001,6.195761718750001,0)" xlink:href="#O"/><use transform="matrix(0.008173828125000001,0,0,0.008173828125000001,10.249980468750001,0)" xlink:href="#ah"/><use transform="matrix(0.008173828125000001,0,0,0.008173828125000001,14.549414062500002,0)" xlink:href="#ab"/><use transform="matrix(0.008173828125000001,0,0,0.008173828125000001,19.862402343750002,0)" xlink:href="#K"/><use transform="matrix(0.008173828125000001,0,0,0.008173828125000001,29.621953125000005,0)" xlink:href="#G"/></g><g id="x"><use transform="matrix(0.008173828125000001,0,0,0.008173828125000001,0,0)" xlink:href="#O"/><use transform="matrix(0.008173828125000001,0,0,0.008173828125000001,4.05421875,0)" xlink:href="#Z"/><use transform="matrix(0.008173828125000001,0,0,0.008173828125000001,13.944550781250001,0)" xlink:href="#aa"/><use transform="matrix(0.008173828125000001,0,0,0.008173828125000001,19.649882812500003,0)" xlink:href="#H"/></g><g id="y"><use transform="matrix(0.008173828125000001,0,0,0.008173828125000001,0,0)" xlink:href="#aa"/><use transform="matrix(0.008173828125000001,0,0,0.008173828125000001,5.705332031250001,0)" xlink:href="#H"/><use transform="matrix(0.008173828125000001,0,0,0.008173828125000001,15.742792968750003,0)" xlink:href="#G"/><use transform="matrix(0.008173828125000001,0,0,0.008173828125000001,22.306376953125003,0)" xlink:href="#I"/><use transform="matrix(0.008173828125000001,0,0,0.008173828125000001,36.97022460937501,0)" xlink:href="#R"/><use transform="matrix(0.008173828125000001,0,0,0.008173828125000001,46.370126953125,0)" xlink:href="#ab"/></g><g id="z"><use transform="matrix(0.008173828125000001,0,0,0.008173828125000001,0,0)" xlink:href="#Y"/><use transform="matrix(0.008173828125000001,0,0,0.008173828125000001,10.266328125000001,0)" xlink:href="#K"/><use transform="matrix(0.008173828125000001,0,0,0.008173828125000001,20.02587890625,0)" xlink:href="#Z"/><use transform="matrix(0.008173828125000001,0,0,0.008173828125000001,29.9162109375,0)" xlink:href="#H"/><use transform="matrix(0.008173828125000001,0,0,0.008173828125000001,39.953671875,0)" xlink:href="#ab"/><use transform="matrix(0.008173828125000001,0,0,0.008173828125000001,45.75708984375,0)" xlink:href="#ak"/><use transform="matrix(0.008173828125000001,0,0,0.008173828125000001,55.165166015625005,0)" xlink:href="#ag"/><use transform="matrix(0.008173828125000001,0,0,0.008173828125000001,65.415146484375,0)" xlink:href="#K"/></g><g id="A"><use transform="matrix(0.008173828125000001,0,0,0.008173828125000001,0,0)" xlink:href="#J"/><use transform="matrix(0.008173828125000001,0,0,0.008173828125000001,8.835908203125001,0)" xlink:href="#Z"/><use transform="matrix(0.008173828125000001,0,0,0.008173828125000001,18.726240234375002,0)" xlink:href="#ag"/><use transform="matrix(0.008173828125000001,0,0,0.008173828125000001,28.976220703125,0)" xlink:href="#K"/><use transform="matrix(0.008173828125000001,0,0,0.008173828125000001,38.735771484375,0)" xlink:href="#aa"/><use transform="matrix(0.008173828125000001,0,0,0.008173828125000001,44.277626953125,0)" xlink:href="#aa"/><use transform="matrix(0.008173828125000001,0,0,0.008173828125000001,50.23634765625,0)" xlink:href="#N"/><use transform="matrix(0.008173828125000001,0,0,0.008173828125000001,58.434697265625,0)" xlink:href="#I"/><use transform="matrix(0.008173828125000001,0,0,0.008173828125000001,73.098544921875,0)" xlink:href="#R"/><use transform="matrix(0.008173828125000001,0,0,0.008173828125000001,82.498447265625,0)" xlink:href="#ab"/><use transform="matrix(0.008173828125000001,0,0,0.008173828125000001,87.811435546875,0)" xlink:href="#E"/><use transform="matrix(0.008173828125000001,0,0,0.008173828125000001,97.374814453125,0)" xlink:href="#F"/></g><g id="B"><use transform="matrix(0.008173828125000001,0,0,0.008173828125000001,0,0)" xlink:href="#O"/><use transform="matrix(0.008173828125000001,0,0,0.008173828125000001,4.05421875,0)" xlink:href="#J"/><use transform="matrix(0.008173828125000001,0,0,0.008173828125000001,12.890126953125002,0)" xlink:href="#N"/><use transform="matrix(0.008173828125000001,0,0,0.008173828125000001,20.524482421875003,0)" xlink:href="#J"/><use transform="matrix(0.008173828125000001,0,0,0.008173828125000001,29.360390625000004,0)" xlink:href="#Z"/><use transform="matrix(0.008173828125000001,0,0,0.008173828125000001,39.250722656250005,0)" xlink:href="#ag"/></g><g id="C"><use transform="matrix(0.008173828125000001,0,0,0.008173828125000001,0,0)" xlink:href="#ab"/><use transform="matrix(0.008173828125000001,0,0,0.008173828125000001,5.4764648437500005,0)" xlink:href="#O"/><use transform="matrix(0.008173828125000001,0,0,0.008173828125000001,9.530683593750002,0)" xlink:href="#Z"/><use transform="matrix(0.008173828125000001,0,0,0.008173828125000001,19.175800781250004,0)" xlink:href="#ak"/><use transform="matrix(0.008173828125000001,0,0,0.008173828125000001,28.583876953125007,0)" xlink:href="#O"/><use transform="matrix(0.008173828125000001,0,0,0.008173828125000001,32.638095703125,0)" xlink:href="#Z"/><use transform="matrix(0.008173828125000001,0,0,0.008173828125000001,42.528427734375,0)" xlink:href="#ab"/></g><g id="D"><use transform="matrix(0.008173828125000001,0,0,0.008173828125000001,0,0)" xlink:href="#Y"/><use transform="matrix(0.008173828125000001,0,0,0.008173828125000001,10.266328125000001,0)" xlink:href="#K"/><use transform="matrix(0.008173828125000001,0,0,0.008173828125000001,20.02587890625,0)" xlink:href="#Z"/><use transform="matrix(0.008173828125000001,0,0,0.008173828125000001,29.9162109375,0)" xlink:href="#K"/><use transform="matrix(0.008173828125000001,0,0,0.008173828125000001,39.67576171875,0)" xlink:href="#N"/><use transform="matrix(0.008173828125000001,0,0,0.008173828125000001,47.874111328125004,0)" xlink:href="#Z"/><use transform="matrix(0.008173828125000001,0,0,0.008173828125000001,57.76444335937501,0)" xlink:href="#R"/><use transform="matrix(0.008173828125000001,0,0,0.008173828125000001,67.16434570312501,0)" xlink:href="#I"/><use transform="matrix(0.008173828125000001,0,0,0.008173828125000001,81.828193359375,0)" xlink:href="#K"/></g></defs></g></svg>