<svg xmlns="http://www.w3.org/2000/svg" xmlns:xlink="http://www.w3.org/1999/xlink" xmlns:lucid="lucid" width="1223" height="345.9"><g transform="translate(-318.5 82.99995000000035)" lucid:page-tab-id="y~9SsjvaAoJ9"><path d="M580 146a6 6 0 0 1 6-6h132a6 6 0 0 1 6 6v96c-24.05-17.03-39.02-17.03-48.1-17.03-14.4 0-33.55 17.03-47.95 17.03-8.93 0-24.05 0-47.95-17.03z" stroke="#3a414a" stroke-width="3" fill="#fff"/><path d="M588 155a6 6 0 0 1 6-6h132a6 6 0 0 1 6 6v96c-24.05-17.03-39.02-17.03-48.1-17.03-14.4 0-33.55 17.03-47.95 17.03-8.93 0-24.05 0-47.95-17.03z" stroke="#3a414a" stroke-width="3" fill="#fff"/><path d="M596 164a6 6 0 0 1 6-6h132a6 6 0 0 1 6 6v96c-24.05-17.03-39.02-17.03-48.1-17.03-14.4 0-33.55 17.03-47.95 17.03-8.93 0-24.05 0-47.95-17.03z" stroke="#3a414a" stroke-width="3" fill="#fff"/><use xlink:href="#a" transform="matrix(1,0,0,1,601,163) translate(14.570746527777779 44.96527777777778)"/><use xlink:href="#b" transform="matrix(1,0,0,1,601,163) translate(64.75520833333334 44.96527777777778)"/><path d="M1000 68c0 6.63-26.86 12-60 12s-60-5.37-60-12v-96c0-6.63 26.86-12 60-12s60 5.37 60 12z" stroke="#3a414a" stroke-width="3" fill="#fff"/><path d="M1000-28c0 6.63-26.86 12-60 12s-60-5.37-60-12" stroke="#3a414a" stroke-width="3" fill="none"/><use xlink:href="#c" transform="matrix(1,0,0,1,885,-11) translate(5.320095486111114 51.09027777777778)"/><path d="M560-34a6 6 0 0 1 6-6h188a6 6 0 0 1 6 6V74a6 6 0 0 1-6 6H566a6 6 0 0 1-6-6z" stroke="#3a414a" stroke-width="3" fill="#fff"/><path d="M580-40V80M740-40V80" stroke="#3a414a" stroke-width="3" fill="none"/><use xlink:href="#d" transform="matrix(1,0,0,1,590,-35) translate(4.244791666666671 63.08376736111111)"/><path d="M660 82v2.1m0 4.2v4.2m0 4.2v4.2m0 4.2v4.2m0 4.2v4.2m0 4.2v2.1" stroke="#3a414a" fill="none"/><path d="M660.48 82h-.96v-.5h.96z" stroke="#3a414a" stroke-width=".05" fill="#3a414a"/><path d="M660 137.5l-7.5-13h15z" stroke="#3a414a" fill="#3a414a"/><path d="M742 200.3h1.6m3.17 0h1.6l.93-.08.92-.22.43-.18m3.24-3.24l.17-.43.22-.92.06-.94v-2.06m0-4.1v-4.1m0-4.1v-4.08m0-4.1v-4.1m0-4.1v-4.1m0-4.1v-4.1m0-4.08v-4.1m0-4.1v-4.1m0-4.1v-4.1m0-4.08v-4.1m0-4.1v-4.1m0-4.1v-4.1m0-4.08v-2.05" stroke="#3a414a" fill="none"/><path d="M742 200.77h-.5v-.95h.5z" stroke="#3a414a" stroke-width=".05" fill="#3a414a"/><path d="M754.36 82.48l7.5 13h-15z" stroke="#3a414a" fill="#3a414a"/><path d="M763 20h98" stroke="#3a414a" stroke-width="3" fill="none"/><path d="M763.04 21.48h-1.54v-2.96h1.54z" stroke="#3a414a" stroke-width=".05" fill="#3a414a"/><path d="M875.5 20l-13 7.5v-15z" stroke="#3a414a" stroke-width="3" fill="#3a414a"/><path d="M440-20c22.1 0 40 17.9 40 40s-17.9 40-40 40h-80c-22.1 0-40-17.9-40-40s17.9-40 40-40z" stroke="#3a414a" stroke-width="3" fill="#fff"/><use xlink:href="#e" transform="matrix(1,0,0,1,325,-15) translate(49.951171875 43.40277777777778)"/><path d="M483 20h58" stroke="#3a414a" stroke-width="3" fill="none"/><path d="M483.04 21.48h-1.63l.1-1.46-.05-1.5h1.6z" stroke="#3a414a" stroke-width=".05" fill="#3a414a"/><path d="M555.5 20l-13 7.5v-15z" stroke="#3a414a" stroke-width="3" fill="#3a414a"/><path d="M1100-34a6 6 0 0 1 6-6h148a6 6 0 0 1 6 6V74a6 6 0 0 1-6 6h-148a6 6 0 0 1-6-6z" stroke="#3a414a" stroke-width="3" fill="#fff"/><path d="M1116-40V80m128-120V80" stroke="#3a414a" stroke-width="3" fill="none"/><use xlink:href="#f" transform="matrix(1,0,0,1,1125,-35) translate(37.253689236111114 63.08376736111111)"/><path d="M1180-43v-32.5a6 6 0 0 0-6-6H945.97a6 6 0 0 0-6 6V-59" stroke="#3a414a" stroke-width="3" fill="none"/><path d="M1181.47-41.5h-2.94v-1.54h2.94z" stroke="#3a414a" stroke-width=".05" fill="#3a414a"/><path d="M939.97-44.5l-7.5-13h15z" stroke="#3a414a" stroke-width="3" fill="#3a414a"/><path d="M940 83v32.5a6 6 0 0 0 6 6h228a6 6 0 0 0 6-6V99" stroke="#3a414a" stroke-width="3" fill="none"/><path d="M940 81.5l1.48-.05v1.6h-2.96v-1.6z" stroke="#3a414a" stroke-width=".05" fill="#3a414a"/><path d="M1180 84.5l7.5 13h-15z" stroke="#3a414a" stroke-width="3" fill="#3a414a"/><path d="M1263 20h98" stroke="#3a414a" stroke-width="3" fill="none"/><path d="M1263.04 21.48h-1.54v-2.96h1.54z" stroke="#3a414a" stroke-width=".05" fill="#3a414a"/><path d="M1375.5 20l-13 7.5v-15z" stroke="#3a414a" stroke-width="3" fill="#3a414a"/><path d="M1500-20c22.1 0 40 17.9 40 40s-17.9 40-40 40h-80c-22.1 0-40-17.9-40-40s17.9-40 40-40z" stroke="#3a414a" stroke-width="3" fill="#fff"/><use xlink:href="#g" transform="matrix(1,0,0,1,1385,-15) translate(18.261718750000007 43.40277777777778)"/><defs><path d="M600 0L52-1490h200c166 485 304 806 458 1336 156-533 285-846 449-1336h202L819 0H600" id="h"/><path d="M783 20c-382 0-661-292-661-764 0-473 279-766 661-766 302 0 548 182 601 489h-190c-42-204-217-313-411-313-268 0-476 208-476 590 0 381 209 588 476 588 195 0 369-110 411-313h190c-52 303-296 489-601 489" id="i"/><path d="M180 0v-1490h901v168H370v510h643v168H370V0H180" id="j"/><g id="a"><use transform="matrix(0.010850694444444444,0,0,0.010850694444444444,0,0)" xlink:href="#h"/><use transform="matrix(0.010850694444444444,0,0,0.010850694444444444,14.583333333333332,0)" xlink:href="#i"/><use transform="matrix(0.010850694444444444,0,0,0.010850694444444444,30.81597222222222,0)" xlink:href="#j"/></g><path d="M678-1118v154H420V0H240v-964H20v-154h220v-149c0-194 155-293 318-293 85 0 141 18 168 30l-50 154c-19-6-47-17-97-17-111 0-159 58-159 166v109h258" id="k"/><path d="M158 0v-1118h180V0H158zm91-1301c-68 0-125-53-125-119s57-119 125-119c69 0 126 53 126 119s-57 119-126 119" id="l"/><path d="M338-1490V0H158v-1490h180" id="m"/><path d="M628 24c-324 0-524-230-524-574 0-343 198-582 503-582 237 0 487 146 487 559v75H286c9 234 145 362 343 362 132 0 231-58 273-172l174 48C1024-91 857 24 628 24zM287-650h624c-17-190-120-322-304-322-192 0-309 151-320 322" id="n"/><path d="M538 24C308 24 148-78 108-271l171-41c32 123 123 178 257 178 156 0 256-77 256-169 0-77-54-128-164-154l-186-44c-203-48-300-148-300-305 0-192 176-326 414-326 230 0 351 112 402 269l-163 42c-31-80-94-158-238-158-133 0-233 69-233 162 0 83 57 129 188 160l169 40c203 48 298 149 298 302 0 196-179 339-441 339" id="o"/><g id="b"><use transform="matrix(0.010850694444444444,0,0,0.010850694444444444,0,0)" xlink:href="#k"/><use transform="matrix(0.010850694444444444,0,0,0.010850694444444444,8.22482638888889,0)" xlink:href="#l"/><use transform="matrix(0.010850694444444444,0,0,0.010850694444444444,13.606770833333332,0)" xlink:href="#m"/><use transform="matrix(0.010850694444444444,0,0,0.010850694444444444,18.98871527777778,0)" xlink:href="#n"/><use transform="matrix(0.010850694444444444,0,0,0.010850694444444444,31.944444444444443,0)" xlink:href="#o"/></g><path d="M645 0H180v-1490h484c435 0 692 280 692 742 0 466-257 748-711 748zM370-168h263c363 0 539-218 539-580 0-358-176-574-521-574H370v1154" id="p"/><path d="M471 26C259 26 90-98 90-318c0-256 228-303 435-329 202-27 287-16 287-108 0-139-79-219-234-219-161 0-248 86-283 164l-173-57c86-203 278-265 451-265 150 0 419 46 419 395V0H815v-152h-12C765-73 660 26 471 26zm31-159c199 0 310-134 310-271v-155c-30 35-226 55-295 64-131 17-246 59-246 186 0 116 97 176 231 176" id="q"/><path d="M598-1118v154H368v674c0 100 37 144 132 144 23 0 62-6 92-12L629-6c-37 13-88 20-134 20-193 0-307-107-307-290v-688H20v-154h168v-266h180v266h230" id="r"/><path d="M677 24c-213 0-288-135-325-197h-20V0H158v-1490h180v551h14c37-59 106-193 324-193 279 0 474 222 474 576 0 356-194 580-473 580zm-27-161c209 0 317-186 317-421 0-232-105-413-317-413-206 0-314 166-314 413 0 249 111 421 314 421" id="s"/><g id="c"><use transform="matrix(0.010850694444444444,0,0,0.010850694444444444,0,0)" xlink:href="#p"/><use transform="matrix(0.010850694444444444,0,0,0.010850694444444444,16.03732638888889,0)" xlink:href="#q"/><use transform="matrix(0.010850694444444444,0,0,0.010850694444444444,28.515625,0)" xlink:href="#r"/><use transform="matrix(0.010850694444444444,0,0,0.010850694444444444,35.89409722222222,0)" xlink:href="#q"/><use transform="matrix(0.010850694444444444,0,0,0.010850694444444444,48.37239583333333,0)" xlink:href="#s"/><use transform="matrix(0.010850694444444444,0,0,0.010850694444444444,62.19618055555554,0)" xlink:href="#q"/><use transform="matrix(0.010850694444444444,0,0,0.010850694444444444,74.67447916666666,0)" xlink:href="#o"/><use transform="matrix(0.010850694444444444,0,0,0.010850694444444444,86.4040798611111,0)" xlink:href="#n"/></g><path d="M158 418v-1536h174v179h20c37-59 106-193 324-193 279 0 474 222 474 576 0 356-194 580-473 580-213 0-288-135-325-197h-14v591H158zm492-555c209 0 317-186 317-421 0-232-105-413-317-413-206 0-314 166-314 413 0 249 111 421 314 421" id="t"/><path d="M158 0v-1118h174v172h12c41-113 157-188 290-188 26 0 70 2 91 3v181c-11-2-60-10-108-10-161 0-279 109-279 260V0H158" id="u"/><path d="M934 0v166H0V0h934" id="v"/><path d="M481 0L54-1118h197c107 314 236 620 325 951 87-331 217-637 324-951h197L670 0H481" id="w"/><path d="M613 24c-304 0-509-231-509-576 0-350 205-580 509-580 216 0 392 114 453 309l-173 49c-33-115-133-197-280-197-223 0-326 196-326 419 0 220 103 415 326 415 150 0 252-85 285-206l172 49C1010-95 832 24 613 24" id="x"/><path d="M295 13c-75 0-135-60-135-135s60-135 135-135 135 60 135 135S370 13 295 13" id="y"/><path d="M140 405l46-156c120 36 205 19 263-150l32-93L54-1118h197c107 313 237 620 324 950 87-331 219-637 326-950h196L606 167c-68 178-176 259-334 259-64 0-113-12-132-21" id="z"/><g id="d"><use transform="matrix(0.010850694444444444,0,0,0.010850694444444444,0,0)" xlink:href="#t"/><use transform="matrix(0.010850694444444444,0,0,0.010850694444444444,13.823784722222221,0)" xlink:href="#q"/><use transform="matrix(0.010850694444444444,0,0,0.010850694444444444,26.302083333333332,0)" xlink:href="#u"/><use transform="matrix(0.010850694444444444,0,0,0.010850694444444444,34.66796875,0)" xlink:href="#o"/><use transform="matrix(0.010850694444444444,0,0,0.010850694444444444,46.39756944444444,0)" xlink:href="#n"/><use transform="matrix(0.010850694444444444,0,0,0.010850694444444444,59.35329861111111,0)" xlink:href="#v"/><use transform="matrix(0.010850694444444444,0,0,0.010850694444444444,67.73003472222221,0)" xlink:href="#w"/><use transform="matrix(0.010850694444444444,0,0,0.010850694444444444,79.78515625,0)" xlink:href="#x"/><use transform="matrix(0.010850694444444444,0,0,0.010850694444444444,92.48046875,0)" xlink:href="#k"/><use transform="matrix(0.010850694444444444,0,0,0.010850694444444444,99.44661458333333,0)" xlink:href="#y"/><use transform="matrix(0.010850694444444444,0,0,0.010850694444444444,105.84852430555556,0)" xlink:href="#t"/><use transform="matrix(0.010850694444444444,0,0,0.010850694444444444,119.0212673611111,0)" xlink:href="#z"/></g><path d="M657 26c-323 0-524-166-541-416h195c15 169 171 246 346 246 202 0 356-106 356-265 5-203-294-238-475-293-239-73-380-191-380-389 0-252 224-419 512-419 294 0 499 171 508 396H992c-17-145-151-228-328-228-193 0-321 102-321 242 0 156 175 211 284 241l149 41c160 44 422 134 422 412 0 244-197 432-541 432" id="A"/><g id="e"><use transform="matrix(0.010850694444444444,0,0,0.010850694444444444,0,0)" xlink:href="#A"/><use transform="matrix(0.010850694444444444,0,0,0.010850694444444444,14.2578125,0)" xlink:href="#r"/><use transform="matrix(0.010850694444444444,0,0,0.010850694444444444,21.63628472222222,0)" xlink:href="#q"/><use transform="matrix(0.010850694444444444,0,0,0.010850694444444444,34.11458333333333,0)" xlink:href="#u"/><use transform="matrix(0.010850694444444444,0,0,0.010850694444444444,42.827690972222214,0)" xlink:href="#r"/></g><path d="M52 0l541-1490h220L1361 0h-200l-149-416H398L254 0H52zm404-582h497c-103-290-145-390-251-756-108 377-145 460-246 756" id="B"/><path d="M180 0v-1490h510c348 0 508 209 508 474 0 266-160 477-507 477H370V0H180zm190-706h312c236 0 327-133 327-310 0-176-91-307-329-307H370v617" id="C"/><path d="M370-1490V0H180v-1490h190" id="D"/><g id="f"><use transform="matrix(0.010850694444444444,0,0,0.010850694444444444,0,0)" xlink:href="#B"/><use transform="matrix(0.010850694444444444,0,0,0.010850694444444444,15.33203125,0)" xlink:href="#C"/><use transform="matrix(0.010850694444444444,0,0,0.010850694444444444,29.524739583333332,0)" xlink:href="#D"/></g><path d="M98-1322v-168h1126v168H757V0H567v-1322H98" id="E"/><path d="M158 0v-1118h175l1 205c55-151 181-225 313-225 147 0 245 90 285 228 53-141 190-228 352-228 194 0 352 125 352 384V0h-181v-749c0-161-105-225-225-225-151 0-243 103-243 244V0H807v-767c0-124-93-207-219-207-131 0-250 92-250 270V0H158" id="F"/><path d="M338-670V0H158v-1118h173l1 207c72-158 192-221 342-221 226 0 378 139 378 422V0H872v-695c0-172-96-275-252-275-161 0-282 109-282 300" id="G"/><path d="M613 24c-304 0-509-231-509-576 0-350 205-580 509-580 305 0 511 230 511 580 0 345-206 576-511 576zm0-161c226 0 329-195 329-415 0-222-103-419-329-419-223 0-326 196-326 419 0 220 103 415 326 415" id="H"/><g id="g"><use transform="matrix(0.010850694444444444,0,0,0.010850694444444444,0,0)" xlink:href="#E"/><use transform="matrix(0.010850694444444444,0,0,0.010850694444444444,12.608506944444445,0)" xlink:href="#n"/><use transform="matrix(0.010850694444444444,0,0,0.010850694444444444,25.56423611111111,0)" xlink:href="#u"/><use transform="matrix(0.010850694444444444,0,0,0.010850694444444444,34.27734375,0)" xlink:href="#F"/><use transform="matrix(0.010850694444444444,0,0,0.010850694444444444,53.74348958333333,0)" xlink:href="#l"/><use transform="matrix(0.010850694444444444,0,0,0.010850694444444444,59.12543402777778,0)" xlink:href="#G"/><use transform="matrix(0.010850694444444444,0,0,0.010850694444444444,72.25477430555554,0)" xlink:href="#q"/><use transform="matrix(0.010850694444444444,0,0,0.010850694444444444,84.73307291666666,0)" xlink:href="#r"/><use transform="matrix(0.010850694444444444,0,0,0.010850694444444444,91.78602430555556,0)" xlink:href="#H"/><use transform="matrix(0.010850694444444444,0,0,0.010850694444444444,105.11067708333331,0)" xlink:href="#u"/></g></defs></g></svg>