<svg xmlns="http://www.w3.org/2000/svg" xmlns:xlink="http://www.w3.org/1999/xlink" xmlns:lucid="lucid" width="3217" height="314.75"><g transform="translate(925.8333333333335 -326.62475907619813)" lucid:page-tab-id="A.VVyMXrc~Jj"><path d="M-644.83 453.62a6 6 0 0 1 6-6h248a6 6 0 0 1 6 6v68a6 6 0 0 1-6 6h-248a6 6 0 0 1-6-6z" stroke="#3a414a" stroke-width="2" fill="#fff"/><use xlink:href="#a" transform="matrix(1,0,0,1,-639.8333333333335,452.6209420996927) translate(60.64995659722223 43.40277777777778)"/><path d="M-314.83 449.87a6 6 0 0 1 6-6h248a6 6 0 0 1 6 6v68a6 6 0 0 1-6 6h-248a6 6 0 0 1-6-6z" stroke="#3a414a" stroke-width="2" fill="#fff"/><use xlink:href="#b" transform="matrix(1,0,0,1,-309.8333333333335,448.8724397470383) translate(70.44270833333333 43.40277777777778)"/><path d="M15.17 451.87a6 6 0 0 1 6-6h248a6 6 0 0 1 6 6v68a6 6 0 0 1-6 6h-248a6 6 0 0 1-6-6z" stroke="#3a414a" stroke-width="2" fill="#fff"/><use xlink:href="#c" transform="matrix(1,0,0,1,20.166666666666515,450.87234268807447) translate(91.66666666666667 43.40277777777778)"/><path d="M-382.33 487.62h49" stroke="#3a414a" stroke-width="3" fill="none"/><path d="M-382.3 489.1h-1.53v-2.95h1.53z" stroke="#3a414a" stroke-width=".05" fill="#3a414a"/><path d="M-318.83 487.62l-13 7.5v-15z" stroke="#3a414a" stroke-width="3" fill="#3a414a"/><path d="M-52.33 483.87h49" stroke="#3a414a" stroke-width="3" fill="none"/><path d="M-52.3 485.35h-1.53v-2.95h1.53z" stroke="#3a414a" stroke-width=".05" fill="#3a414a"/><path d="M11.17 483.87l-13 7.5v-15z" stroke="#3a414a" stroke-width="3" fill="#3a414a"/><path d="M455.17 574.65a6 6 0 0 1 6-6h218a6 6 0 0 1 6 6v59.73a6 6 0 0 1-6 6h-218a6 6 0 0 1-6-6z" stroke="#3a414a" stroke-width="2" fill="#fff"/><use xlink:href="#d" transform="matrix(1,0,0,1,467.1666666666665,580.6521935457772) translate(3.6673177083333144 33.52777777777778)"/><path d="M-924.83 457.37a6 6 0 0 1 6-6h198a6 6 0 0 1 6 6v60.5a6 6 0 0 1-6 6h-198a6 6 0 0 1-6-6z" stroke="#3a414a" stroke-width="2" fill="#fff"/><use xlink:href="#e" transform="matrix(1,0,0,1,-919.8333333333335,456.3694444523471) translate(26.15559895833333 41.21527777777778)"/><path d="M-712.33 487.62h49" stroke="#3a414a" stroke-width="3" fill="none"/><path d="M-712.3 489.1h-1.53v-2.95h1.54z" stroke="#3a414a" stroke-width=".05" fill="#3a414a"/><path d="M-648.83 487.62l-13 7.5v-15z" stroke="#3a414a" stroke-width="3" fill="#3a414a"/><path d="M455.17 345.35a6 6 0 0 1 6-6h288a6 6 0 0 1 6 6v48a6 6 0 0 1-6 6h-288a6 6 0 0 1-6-6z" stroke="#3a414a" stroke-width="2" fill="#fff"/><use xlink:href="#f" transform="matrix(1,0,0,1,467.1666666666665,351.34780645422273) translate(6.332248263888886 26.02777777777778)"/><path d="M277.67 485.87h76.5a6 6 0 0 0 6-6V375.35a6 6 0 0 1 6-6h70.5" stroke="#3a414a" stroke-width="3" fill="none"/><path d="M277.7 487.35h-1.53v-2.95h1.53z" stroke="#3a414a" stroke-width=".05" fill="#3a414a"/><path d="M451.17 369.35l-13 7.5v-15z" stroke="#3a414a" stroke-width="3" fill="#3a414a"/><path d="M277.67 485.87h159" stroke="#3a414a" stroke-width="3" fill="none"/><path d="M277.7 487.35h-1.53v-2.95h1.53z" stroke="#3a414a" stroke-width=".05" fill="#3a414a"/><path d="M451.17 485.87l-13 7.5v-15z" stroke="#3a414a" stroke-width="3" fill="#3a414a"/><path d="M277.67 485.87h76.5a6 6 0 0 1 6 6V598.5a6 6 0 0 0 6 6h70.5" stroke="#3a414a" stroke-width="3" fill="none"/><path d="M277.7 487.35h-1.53v-2.95h1.53z" stroke="#3a414a" stroke-width=".05" fill="#3a414a"/><path d="M451.17 604.5l-13 7.5v-15z" stroke="#3a414a" stroke-width="3" fill="#3a414a"/><path d="M835.17 333.63a6 6 0 0 1 6-6h248a6 6 0 0 1 6 6v59.72a6 6 0 0 1-6 6h-248a6 6 0 0 1-6-6z" stroke="#3a414a" stroke-width="2" fill="#fff"/><use xlink:href="#g" transform="matrix(1,0,0,1,840.1666666666665,332.62475907619813) translate(17.86566840277777 40.90277777777778)"/><path d="M757.67 369.35h59" stroke="#3a414a" stroke-width="3" fill="none"/><path d="M757.7 370.82h-1.53v-2.95h1.54z" stroke="#3a414a" stroke-width=".05" fill="#3a414a"/><path d="M831.17 369.35l-13 7.5v-15z" stroke="#3a414a" stroke-width="3" fill="#3a414a"/><path d="M835.17 458.4a6 6 0 0 1 6-6h288a6 6 0 0 1 6 6v59.72a6 6 0 0 1-6 6h-288a6 6 0 0 1-6-6z" stroke="#3a414a" stroke-width="2" fill="#fff"/><use xlink:href="#h" transform="matrix(1,0,0,1,847.1666666666665,464.40069589843165) translate(2.127604166666657 33.52777777777778)"/><path d="M1137.67 488.26h49" stroke="#3a414a" stroke-width="3" fill="none"/><path d="M1137.7 489.74h-1.53v-2.95h1.53z" stroke="#3a414a" stroke-width=".05" fill="#3a414a"/><path d="M1201.17 488.26l-13 7.5v-15z" stroke="#3a414a" stroke-width="3" fill="#3a414a"/><path d="M1205.17 458.4a6 6 0 0 1 6-6h268a6 6 0 0 1 6 6v59.72a6 6 0 0 1-6 6h-268a6 6 0 0 1-6-6z" stroke="#3a414a" stroke-width="2" fill="#fff"/><use xlink:href="#i" transform="matrix(1,0,0,1,1217.1666666666665,464.40069589843165) translate(-5.116319444444457 32.083767361111114)"/><path d="M1555.17 458.4a6 6 0 0 1 6-6h453a6 6 0 0 1 6 6v59.72a6 6 0 0 1-6 6h-453a6 6 0 0 1-6-6z" stroke="#3a414a" stroke-width="2" fill="#fff"/><use xlink:href="#j" transform="matrix(1,0,0,1,1567.1666666666665,464.40069589843165) translate(-2.2105034722222285 32.083767361111114)"/><path d="M1487.67 488.26h49" stroke="#3a414a" stroke-width="3" fill="none"/><path d="M1487.7 489.74h-1.53v-2.95h1.53z" stroke="#3a414a" stroke-width=".05" fill="#3a414a"/><path d="M1551.17 488.26l-13 7.5v-15z" stroke="#3a414a" stroke-width="3" fill="#3a414a"/><path d="M455.17 461.87a6 6 0 0 1 6-6h288a6 6 0 0 1 6 6v48a6 6 0 0 1-6 6h-288a6 6 0 0 1-6-6z" stroke="#3a414a" stroke-width="2" fill="#fff"/><use xlink:href="#f" transform="matrix(1,0,0,1,467.1666666666665,467.87234268807447) translate(6.332248263888886 26.02777777777778)"/><path d="M757.67 485.87h59" stroke="#3a414a" stroke-width="3" fill="none"/><path d="M757.7 487.35h-1.53v-2.95h1.54z" stroke="#3a414a" stroke-width=".05" fill="#3a414a"/><path d="M831.17 485.87l-13 7.5v-15z" stroke="#3a414a" stroke-width="3" fill="#3a414a"/><path d="M2022.67 488.26h54" stroke="#3a414a" stroke-width="3" fill="none"/><path d="M2022.7 489.74h-1.53v-2.95h1.53z" stroke="#3a414a" stroke-width=".05" fill="#3a414a"/><path d="M2091.17 488.26l-13 7.5v-15z" stroke="#3a414a" stroke-width="3" fill="#3a414a"/><path d="M2264.4 462.5c14.23 0 25.77 11.54 25.77 25.76 0 14.23-11.54 25.76-25.76 25.76h-143.47c-14.23 0-25.76-11.53-25.76-25.76 0-14.22 11.53-25.76 25.76-25.76z" stroke="#3a414a" stroke-width="2" fill="#fff"/><use xlink:href="#k" transform="matrix(1,0,0,1,2107.1666666666665,474.50331680745785) translate(28.761718750000007 23.27777777777778)"/><defs><path d="M611 442c-248 0-391-105-460-228l146-94c47 65 117 165 314 165 178 0 307-82 307-266v-224h-17C863-141 792-18 576-18c-268 0-472-195-472-546 0-346 197-568 476-568 216 0 288 133 326 193h17v-179h175V29c0 289-215 413-487 413zm-5-620c203 0 314-146 314-390 0-237-108-403-314-403-213 0-319 180-319 403 0 230 109 390 319 390" id="l"/><path d="M628 24c-324 0-524-230-524-574 0-343 198-582 503-582 237 0 487 146 487 559v75H286c9 234 145 362 343 362 132 0 231-58 273-172l174 48C1024-91 857 24 628 24zM287-650h624c-17-190-120-322-304-322-192 0-309 151-320 322" id="m"/><path d="M598-1118v154H368v674c0 100 37 144 132 144 23 0 62-6 92-12L629-6c-37 13-88 20-134 20-193 0-307-107-307-290v-688H20v-154h168v-266h180v266h230" id="n"/><path d="M934 0v166H0V0h934" id="o"/><path d="M481 0L54-1118h197c107 314 236 620 325 951 87-331 217-637 324-951h197L670 0H481" id="p"/><path d="M613 24c-304 0-509-231-509-576 0-350 205-580 509-580 216 0 392 114 453 309l-173 49c-33-115-133-197-280-197-223 0-326 196-326 419 0 220 103 415 326 415 150 0 252-85 285-206l172 49C1010-95 832 24 613 24" id="q"/><path d="M678-1118v154H420V0H240v-964H20v-154h220v-149c0-194 155-293 318-293 85 0 141 18 168 30l-50 154c-19-6-47-17-97-17-111 0-159 58-159 166v109h258" id="r"/><path d="M158 0v-1118h180V0H158zm91-1301c-68 0-125-53-125-119s57-119 125-119c69 0 126 53 126 119s-57 119-126 119" id="s"/><path d="M338-1490V0H158v-1490h180" id="t"/><path d="M538 24C308 24 148-78 108-271l171-41c32 123 123 178 257 178 156 0 256-77 256-169 0-77-54-128-164-154l-186-44c-203-48-300-148-300-305 0-192 176-326 414-326 230 0 351 112 402 269l-163 42c-31-80-94-158-238-158-133 0-233 69-233 162 0 83 57 129 188 160l169 40c203 48 298 149 298 302 0 196-179 339-441 339" id="u"/><g id="a"><use transform="matrix(0.010850694444444444,0,0,0.010850694444444444,0,0)" xlink:href="#l"/><use transform="matrix(0.010850694444444444,0,0,0.010850694444444444,13.628472222222221,0)" xlink:href="#m"/><use transform="matrix(0.010850694444444444,0,0,0.010850694444444444,26.58420138888889,0)" xlink:href="#n"/><use transform="matrix(0.010850694444444444,0,0,0.010850694444444444,33.854166666666664,0)" xlink:href="#o"/><use transform="matrix(0.010850694444444444,0,0,0.010850694444444444,42.23090277777777,0)" xlink:href="#p"/><use transform="matrix(0.010850694444444444,0,0,0.010850694444444444,54.28602430555556,0)" xlink:href="#q"/><use transform="matrix(0.010850694444444444,0,0,0.010850694444444444,66.98133680555554,0)" xlink:href="#r"/><use transform="matrix(0.010850694444444444,0,0,0.010850694444444444,74.89149305555554,0)" xlink:href="#o"/><use transform="matrix(0.010850694444444444,0,0,0.010850694444444444,85.02604166666666,0)" xlink:href="#r"/><use transform="matrix(0.010850694444444444,0,0,0.010850694444444444,93.25086805555556,0)" xlink:href="#s"/><use transform="matrix(0.010850694444444444,0,0,0.010850694444444444,98.63281249999997,0)" xlink:href="#t"/><use transform="matrix(0.010850694444444444,0,0,0.010850694444444444,104.01475694444441,0)" xlink:href="#m"/><use transform="matrix(0.010850694444444444,0,0,0.010850694444444444,116.9704861111111,0)" xlink:href="#u"/></g><path d="M158 0v-1118h175l1 205c55-151 181-225 313-225 147 0 245 90 285 228 53-141 190-228 352-228 194 0 352 125 352 384V0h-181v-749c0-161-105-225-225-225-151 0-243 103-243 244V0H807v-767c0-124-93-207-219-207-131 0-250 92-250 270V0H158" id="v"/><path d="M158 418v-1536h174v179h20c37-59 106-193 324-193 279 0 474 222 474 576 0 356-194 580-473 580-213 0-288-135-325-197h-14v591H158zm492-555c209 0 317-186 317-421 0-232-105-413-317-413-206 0-314 166-314 413 0 249 111 421 314 421" id="w"/><path d="M613 24c-304 0-509-231-509-576 0-350 205-580 509-580 305 0 511 230 511 580 0 345-206 576-511 576zm0-161c226 0 329-195 329-415 0-222-103-419-329-419-223 0-326 196-326 419 0 220 103 415 326 415" id="x"/><path d="M158 0v-1118h174v172h12c41-113 157-188 290-188 26 0 70 2 91 3v181c-11-2-60-10-108-10-161 0-279 109-279 260V0H158" id="y"/><g id="b"><use transform="matrix(0.010850694444444444,0,0,0.010850694444444444,0,0)" xlink:href="#s"/><use transform="matrix(0.010850694444444444,0,0,0.010850694444444444,5.381944444444445,0)" xlink:href="#v"/><use transform="matrix(0.010850694444444444,0,0,0.010850694444444444,24.84809027777778,0)" xlink:href="#w"/><use transform="matrix(0.010850694444444444,0,0,0.010850694444444444,38.454861111111114,0)" xlink:href="#x"/><use transform="matrix(0.010850694444444444,0,0,0.010850694444444444,51.7795138888889,0)" xlink:href="#y"/><use transform="matrix(0.010850694444444444,0,0,0.010850694444444444,60.49262152777778,0)" xlink:href="#n"/><use transform="matrix(0.010850694444444444,0,0,0.010850694444444444,67.76258680555556,0)" xlink:href="#o"/><use transform="matrix(0.010850694444444444,0,0,0.010850694444444444,76.13932291666667,0)" xlink:href="#p"/><use transform="matrix(0.010850694444444444,0,0,0.010850694444444444,88.19444444444446,0)" xlink:href="#q"/><use transform="matrix(0.010850694444444444,0,0,0.010850694444444444,100.88975694444446,0)" xlink:href="#r"/></g><path d="M471 26C259 26 90-98 90-318c0-256 228-303 435-329 202-27 287-16 287-108 0-139-79-219-234-219-161 0-248 86-283 164l-173-57c86-203 278-265 451-265 150 0 419 46 419 395V0H815v-152h-12C765-73 660 26 471 26zm31-159c199 0 310-134 310-271v-155c-30 35-226 55-295 64-131 17-246 59-246 186 0 116 97 176 231 176" id="z"/><path d="M338-670V0H158v-1118h173l1 207c72-158 192-221 342-221 226 0 378 139 378 422V0H872v-695c0-172-96-275-252-275-161 0-282 109-282 300" id="A"/><path d="M218-607c0-325 108-727 258-974h175c-155 315-250 682-250 974 0 265 78 531 250 886H476C306-10 218-315 218-607" id="B"/><path d="M96 279C273-86 346-350 346-607c0-292-95-659-250-974h175c150 246 258 650 258 974 0 297-91 602-258 886H96" id="C"/><g id="c"><use transform="matrix(0.010850694444444444,0,0,0.010850694444444444,0,0)" xlink:href="#v"/><use transform="matrix(0.010850694444444444,0,0,0.010850694444444444,19.466145833333332,0)" xlink:href="#z"/><use transform="matrix(0.010850694444444444,0,0,0.010850694444444444,31.944444444444443,0)" xlink:href="#s"/><use transform="matrix(0.010850694444444444,0,0,0.010850694444444444,37.326388888888886,0)" xlink:href="#A"/><use transform="matrix(0.010850694444444444,0,0,0.010850694444444444,50.455729166666664,0)" xlink:href="#B"/><use transform="matrix(0.010850694444444444,0,0,0.010850694444444444,58.561197916666664,0)" xlink:href="#C"/></g><path d="M577 24c-279 0-473-224-473-580 0-354 195-576 474-576 218 0 287 134 324 193h14v-551h180V0H922v-173h-20C865-111 790 24 577 24zm27-161c203 0 314-172 314-421 0-247-108-413-314-413-212 0-317 181-317 413 0 235 108 421 317 421" id="D"/><path d="M677 24c-213 0-288-135-325-197h-20V0H158v-1490h180v551h14c37-59 106-193 324-193 279 0 474 222 474 576 0 356-194 580-473 580zm-27-161c209 0 317-186 317-421 0-232-105-413-317-413-206 0-314 166-314 413 0 249 111 421 314 421" id="E"/><g id="d"><use transform="matrix(0.010850694444444444,0,0,0.010850694444444444,0,0)" xlink:href="#t"/><use transform="matrix(0.010850694444444444,0,0,0.010850694444444444,5.381944444444445,0)" xlink:href="#x"/><use transform="matrix(0.010850694444444444,0,0,0.010850694444444444,18.92361111111111,0)" xlink:href="#z"/><use transform="matrix(0.010850694444444444,0,0,0.010850694444444444,31.40190972222222,0)" xlink:href="#D"/><use transform="matrix(0.010850694444444444,0,0,0.010850694444444444,45.00868055555556,0)" xlink:href="#o"/><use transform="matrix(0.010850694444444444,0,0,0.010850694444444444,53.38541666666667,0)" xlink:href="#p"/><use transform="matrix(0.010850694444444444,0,0,0.010850694444444444,65.76605902777779,0)" xlink:href="#z"/><use transform="matrix(0.010850694444444444,0,0,0.010850694444444444,78.2443576388889,0)" xlink:href="#y"/><use transform="matrix(0.010850694444444444,0,0,0.010850694444444444,86.9574652777778,0)" xlink:href="#s"/><use transform="matrix(0.010850694444444444,0,0,0.010850694444444444,92.33940972222224,0)" xlink:href="#z"/><use transform="matrix(0.010850694444444444,0,0,0.010850694444444444,104.81770833333334,0)" xlink:href="#A"/><use transform="matrix(0.010850694444444444,0,0,0.010850694444444444,117.94704861111113,0)" xlink:href="#n"/><use transform="matrix(0.010850694444444444,0,0,0.010850694444444444,125.00000000000001,0)" xlink:href="#u"/><use transform="matrix(0.010850694444444444,0,0,0.010850694444444444,136.72960069444446,0)" xlink:href="#o"/><use transform="matrix(0.010850694444444444,0,0,0.010850694444444444,146.86414930555557,0)" xlink:href="#n"/><use transform="matrix(0.010850694444444444,0,0,0.010850694444444444,154.2426215277778,0)" xlink:href="#z"/><use transform="matrix(0.010850694444444444,0,0,0.010850694444444444,166.7209201388889,0)" xlink:href="#E"/><use transform="matrix(0.010850694444444444,0,0,0.010850694444444444,180.32769097222226,0)" xlink:href="#t"/><use transform="matrix(0.010850694444444444,0,0,0.010850694444444444,185.70963541666669,0)" xlink:href="#m"/></g><path d="M537 14c-226 0-379-139-379-422v-710h180v695c0 172 97 275 253 275 160 0 281-109 281-300v-670h181V0H879v-209C806-46 684 14 537 14" id="F"/><g id="e"><use transform="matrix(0.010850694444444444,0,0,0.010850694444444444,0,0)" xlink:href="#u"/><use transform="matrix(0.010850694444444444,0,0,0.010850694444444444,11.729600694444445,0)" xlink:href="#m"/><use transform="matrix(0.010850694444444444,0,0,0.010850694444444444,24.68532986111111,0)" xlink:href="#n"/><use transform="matrix(0.010850694444444444,0,0,0.010850694444444444,31.95529513888889,0)" xlink:href="#F"/><use transform="matrix(0.010850694444444444,0,0,0.010850694444444444,45.09548611111111,0)" xlink:href="#w"/><use transform="matrix(0.010850694444444444,0,0,0.010850694444444444,58.70225694444444,0)" xlink:href="#o"/><use transform="matrix(0.010850694444444444,0,0,0.010850694444444444,69.58550347222221,0)" xlink:href="#t"/><use transform="matrix(0.010850694444444444,0,0,0.010850694444444444,74.96744791666666,0)" xlink:href="#x"/><use transform="matrix(0.010850694444444444,0,0,0.010850694444444444,88.29210069444443,0)" xlink:href="#l"/><use transform="matrix(0.010850694444444444,0,0,0.010850694444444444,101.92057291666666,0)" xlink:href="#l"/><use transform="matrix(0.010850694444444444,0,0,0.010850694444444444,115.54904513888889,0)" xlink:href="#s"/><use transform="matrix(0.010850694444444444,0,0,0.010850694444444444,120.93098958333333,0)" xlink:href="#A"/><use transform="matrix(0.010850694444444444,0,0,0.010850694444444444,134.06032986111111,0)" xlink:href="#l"/></g><path d="M338-670V0H158v-1490h180v566c73-149 190-208 336-208 226 0 379 139 379 422V0H872v-695c0-172-96-275-252-275-161 0-282 109-282 300" id="G"/><path d="M158 0v-1490h180v865h22l478-493h223L593-638 1096 0H865L456-523 338-412V0H158" id="H"/><path d="M1096 418H916v-591h-14C865-111 790 24 577 24c-279 0-473-224-473-580 0-354 195-576 474-576 218 0 287 134 324 193h20v-179h174V418zM604-137c203 0 314-172 314-421 0-247-108-413-314-413-212 0-317 181-317 413 0 235 108 421 317 421" id="I"/><g id="f"><use transform="matrix(0.010850694444444444,0,0,0.010850694444444444,0,0)" xlink:href="#q"/><use transform="matrix(0.010850694444444444,0,0,0.010850694444444444,12.6953125,0)" xlink:href="#G"/><use transform="matrix(0.010850694444444444,0,0,0.010850694444444444,25.83550347222222,0)" xlink:href="#m"/><use transform="matrix(0.010850694444444444,0,0,0.010850694444444444,38.791232638888886,0)" xlink:href="#q"/><use transform="matrix(0.010850694444444444,0,0,0.010850694444444444,51.486545138888886,0)" xlink:href="#H"/><use transform="matrix(0.010850694444444444,0,0,0.010850694444444444,63.68272569444444,0)" xlink:href="#o"/><use transform="matrix(0.010850694444444444,0,0,0.010850694444444444,73.81727430555556,0)" xlink:href="#F"/><use transform="matrix(0.010850694444444444,0,0,0.010850694444444444,86.95746527777777,0)" xlink:href="#A"/><use transform="matrix(0.010850694444444444,0,0,0.010850694444444444,100.08680555555556,0)" xlink:href="#s"/><use transform="matrix(0.010850694444444444,0,0,0.010850694444444444,105.46874999999997,0)" xlink:href="#I"/><use transform="matrix(0.010850694444444444,0,0,0.010850694444444444,119.07552083333331,0)" xlink:href="#F"/><use transform="matrix(0.010850694444444444,0,0,0.010850694444444444,132.21571180555554,0)" xlink:href="#m"/><use transform="matrix(0.010850694444444444,0,0,0.010850694444444444,145.1714409722222,0)" xlink:href="#o"/><use transform="matrix(0.010850694444444444,0,0,0.010850694444444444,155.30598958333331,0)" xlink:href="#q"/><use transform="matrix(0.010850694444444444,0,0,0.010850694444444444,168.00130208333331,0)" xlink:href="#x"/><use transform="matrix(0.010850694444444444,0,0,0.010850694444444444,181.32595486111111,0)" xlink:href="#A"/><use transform="matrix(0.010850694444444444,0,0,0.010850694444444444,194.45529513888883,0)" xlink:href="#u"/><use transform="matrix(0.010850694444444444,0,0,0.010850694444444444,206.18489583333331,0)" xlink:href="#n"/><use transform="matrix(0.010850694444444444,0,0,0.010850694444444444,213.56336805555554,0)" xlink:href="#z"/><use transform="matrix(0.010850694444444444,0,0,0.010850694444444444,226.04166666666666,0)" xlink:href="#s"/><use transform="matrix(0.010850694444444444,0,0,0.010850694444444444,231.42361111111111,0)" xlink:href="#A"/><use transform="matrix(0.010850694444444444,0,0,0.010850694444444444,244.55295138888889,0)" xlink:href="#n"/><use transform="matrix(0.010850694444444444,0,0,0.010850694444444444,251.60590277777777,0)" xlink:href="#u"/></g><g id="g"><use transform="matrix(0.010850694444444444,0,0,0.010850694444444444,0,0)" xlink:href="#t"/><use transform="matrix(0.010850694444444444,0,0,0.010850694444444444,5.381944444444445,0)" xlink:href="#x"/><use transform="matrix(0.010850694444444444,0,0,0.010850694444444444,18.92361111111111,0)" xlink:href="#z"/><use transform="matrix(0.010850694444444444,0,0,0.010850694444444444,31.40190972222222,0)" xlink:href="#D"/><use transform="matrix(0.010850694444444444,0,0,0.010850694444444444,45.00868055555556,0)" xlink:href="#o"/><use transform="matrix(0.010850694444444444,0,0,0.010850694444444444,55.14322916666667,0)" xlink:href="#l"/><use transform="matrix(0.010850694444444444,0,0,0.010850694444444444,68.77170138888889,0)" xlink:href="#m"/><use transform="matrix(0.010850694444444444,0,0,0.010850694444444444,81.72743055555556,0)" xlink:href="#A"/><use transform="matrix(0.010850694444444444,0,0,0.010850694444444444,94.85677083333333,0)" xlink:href="#x"/><use transform="matrix(0.010850694444444444,0,0,0.010850694444444444,108.18142361111111,0)" xlink:href="#v"/><use transform="matrix(0.010850694444444444,0,0,0.010850694444444444,127.64756944444441,0)" xlink:href="#m"/><use transform="matrix(0.010850694444444444,0,0,0.010850694444444444,140.6032986111111,0)" xlink:href="#u"/><use transform="matrix(0.010850694444444444,0,0,0.010850694444444444,152.33289930555554,0)" xlink:href="#o"/><use transform="matrix(0.010850694444444444,0,0,0.010850694444444444,162.46744791666666,0)" xlink:href="#n"/><use transform="matrix(0.010850694444444444,0,0,0.010850694444444444,169.84592013888889,0)" xlink:href="#z"/><use transform="matrix(0.010850694444444444,0,0,0.010850694444444444,182.32421875,0)" xlink:href="#E"/><use transform="matrix(0.010850694444444444,0,0,0.010850694444444444,195.93098958333331,0)" xlink:href="#t"/><use transform="matrix(0.010850694444444444,0,0,0.010850694444444444,201.3129340277778,0)" xlink:href="#m"/></g><path d="M65 0l393-574-370-544h210c88 136 192 297 267 435 67-142 176-302 264-435h206L661-564 1053 0H844c-94-144-206-310-287-458C484-308 366-142 273 0H65" id="J"/><g id="h"><use transform="matrix(0.010850694444444444,0,0,0.010850694444444444,0,0)" xlink:href="#v"/><use transform="matrix(0.010850694444444444,0,0,0.010850694444444444,19.466145833333332,0)" xlink:href="#z"/><use transform="matrix(0.010850694444444444,0,0,0.010850694444444444,31.944444444444443,0)" xlink:href="#H"/><use transform="matrix(0.010850694444444444,0,0,0.010850694444444444,43.64149305555556,0)" xlink:href="#m"/><use transform="matrix(0.010850694444444444,0,0,0.010850694444444444,56.59722222222222,0)" xlink:href="#o"/><use transform="matrix(0.010850694444444444,0,0,0.010850694444444444,66.73177083333333,0)" xlink:href="#q"/><use transform="matrix(0.010850694444444444,0,0,0.010850694444444444,79.42708333333333,0)" xlink:href="#G"/><use transform="matrix(0.010850694444444444,0,0,0.010850694444444444,92.56727430555556,0)" xlink:href="#y"/><use transform="matrix(0.010850694444444444,0,0,0.010850694444444444,100.56423611111111,0)" xlink:href="#x"/><use transform="matrix(0.010850694444444444,0,0,0.010850694444444444,113.88888888888887,0)" xlink:href="#v"/><use transform="matrix(0.010850694444444444,0,0,0.010850694444444444,133.3550347222222,0)" xlink:href="#x"/><use transform="matrix(0.010850694444444444,0,0,0.010850694444444444,146.67968749999997,0)" xlink:href="#u"/><use transform="matrix(0.010850694444444444,0,0,0.010850694444444444,158.40928819444443,0)" xlink:href="#x"/><use transform="matrix(0.010850694444444444,0,0,0.010850694444444444,171.7339409722222,0)" xlink:href="#v"/><use transform="matrix(0.010850694444444444,0,0,0.010850694444444444,191.20008680555554,0)" xlink:href="#m"/><use transform="matrix(0.010850694444444444,0,0,0.010850694444444444,204.15581597222223,0)" xlink:href="#o"/><use transform="matrix(0.010850694444444444,0,0,0.010850694444444444,215.03906249999994,0)" xlink:href="#s"/><use transform="matrix(0.010850694444444444,0,0,0.010850694444444444,220.42100694444443,0)" xlink:href="#A"/><use transform="matrix(0.010850694444444444,0,0,0.010850694444444444,233.5503472222222,0)" xlink:href="#D"/><use transform="matrix(0.010850694444444444,0,0,0.010850694444444444,247.15711805555554,0)" xlink:href="#m"/><use transform="matrix(0.010850694444444444,0,0,0.010850694444444444,259.61371527777777,0)" xlink:href="#J"/></g><g id="i"><use transform="matrix(0.010850694444444444,0,0,0.010850694444444444,0,0)" xlink:href="#t"/><use transform="matrix(0.010850694444444444,0,0,0.010850694444444444,5.381944444444445,0)" xlink:href="#x"/><use transform="matrix(0.010850694444444444,0,0,0.010850694444444444,18.92361111111111,0)" xlink:href="#z"/><use transform="matrix(0.010850694444444444,0,0,0.010850694444444444,31.40190972222222,0)" xlink:href="#D"/><use transform="matrix(0.010850694444444444,0,0,0.010850694444444444,45.00868055555556,0)" xlink:href="#o"/><use transform="matrix(0.010850694444444444,0,0,0.010850694444444444,55.14322916666667,0)" xlink:href="#q"/><use transform="matrix(0.010850694444444444,0,0,0.010850694444444444,67.83854166666667,0)" xlink:href="#G"/><use transform="matrix(0.010850694444444444,0,0,0.010850694444444444,80.97873263888889,0)" xlink:href="#y"/><use transform="matrix(0.010850694444444444,0,0,0.010850694444444444,88.97569444444444,0)" xlink:href="#x"/><use transform="matrix(0.010850694444444444,0,0,0.010850694444444444,102.30034722222221,0)" xlink:href="#v"/><use transform="matrix(0.010850694444444444,0,0,0.010850694444444444,121.76649305555556,0)" xlink:href="#x"/><use transform="matrix(0.010850694444444444,0,0,0.010850694444444444,135.09114583333331,0)" xlink:href="#u"/><use transform="matrix(0.010850694444444444,0,0,0.010850694444444444,146.82074652777777,0)" xlink:href="#x"/><use transform="matrix(0.010850694444444444,0,0,0.010850694444444444,160.14539930555554,0)" xlink:href="#v"/><use transform="matrix(0.010850694444444444,0,0,0.010850694444444444,179.61154513888889,0)" xlink:href="#m"/><use transform="matrix(0.010850694444444444,0,0,0.010850694444444444,192.56727430555554,0)" xlink:href="#u"/><use transform="matrix(0.010850694444444444,0,0,0.010850694444444444,204.296875,0)" xlink:href="#o"/><use transform="matrix(0.010850694444444444,0,0,0.010850694444444444,214.43142361111111,0)" xlink:href="#n"/><use transform="matrix(0.010850694444444444,0,0,0.010850694444444444,221.80989583333331,0)" xlink:href="#z"/><use transform="matrix(0.010850694444444444,0,0,0.010850694444444444,234.28819444444449,0)" xlink:href="#E"/><use transform="matrix(0.010850694444444444,0,0,0.010850694444444444,247.8949652777778,0)" xlink:href="#t"/><use transform="matrix(0.010850694444444444,0,0,0.010850694444444444,253.27690972222226,0)" xlink:href="#m"/></g><g id="j"><use transform="matrix(0.010850694444444444,0,0,0.010850694444444444,0,0)" xlink:href="#F"/><use transform="matrix(0.010850694444444444,0,0,0.010850694444444444,13.140190972222221,0)" xlink:href="#w"/><use transform="matrix(0.010850694444444444,0,0,0.010850694444444444,26.746961805555554,0)" xlink:href="#D"/><use transform="matrix(0.010850694444444444,0,0,0.010850694444444444,40.353732638888886,0)" xlink:href="#z"/><use transform="matrix(0.010850694444444444,0,0,0.010850694444444444,52.83203125,0)" xlink:href="#n"/><use transform="matrix(0.010850694444444444,0,0,0.010850694444444444,59.8849826388889,0)" xlink:href="#m"/><use transform="matrix(0.010850694444444444,0,0,0.010850694444444444,72.84071180555556,0)" xlink:href="#o"/><use transform="matrix(0.010850694444444444,0,0,0.010850694444444444,82.97526041666667,0)" xlink:href="#q"/><use transform="matrix(0.010850694444444444,0,0,0.010850694444444444,95.67057291666666,0)" xlink:href="#G"/><use transform="matrix(0.010850694444444444,0,0,0.010850694444444444,108.81076388888889,0)" xlink:href="#y"/><use transform="matrix(0.010850694444444444,0,0,0.010850694444444444,116.80772569444444,0)" xlink:href="#x"/><use transform="matrix(0.010850694444444444,0,0,0.010850694444444444,130.13237847222223,0)" xlink:href="#v"/><use transform="matrix(0.010850694444444444,0,0,0.010850694444444444,149.59852430555557,0)" xlink:href="#x"/><use transform="matrix(0.010850694444444444,0,0,0.010850694444444444,162.92317708333334,0)" xlink:href="#u"/><use transform="matrix(0.010850694444444444,0,0,0.010850694444444444,174.6527777777778,0)" xlink:href="#x"/><use transform="matrix(0.010850694444444444,0,0,0.010850694444444444,187.9774305555556,0)" xlink:href="#v"/><use transform="matrix(0.010850694444444444,0,0,0.010850694444444444,207.4435763888889,0)" xlink:href="#m"/><use transform="matrix(0.010850694444444444,0,0,0.010850694444444444,220.3993055555556,0)" xlink:href="#u"/><use transform="matrix(0.010850694444444444,0,0,0.010850694444444444,232.12890625000003,0)" xlink:href="#o"/><use transform="matrix(0.010850694444444444,0,0,0.010850694444444444,242.26345486111114,0)" xlink:href="#u"/><use transform="matrix(0.010850694444444444,0,0,0.010850694444444444,253.9930555555556,0)" xlink:href="#n"/><use transform="matrix(0.010850694444444444,0,0,0.010850694444444444,261.3715277777778,0)" xlink:href="#z"/><use transform="matrix(0.010850694444444444,0,0,0.010850694444444444,273.8498263888889,0)" xlink:href="#y"/><use transform="matrix(0.010850694444444444,0,0,0.010850694444444444,282.5629340277778,0)" xlink:href="#n"/><use transform="matrix(0.010850694444444444,0,0,0.010850694444444444,289.8328993055556,0)" xlink:href="#o"/><use transform="matrix(0.010850694444444444,0,0,0.010850694444444444,299.9674479166667,0)" xlink:href="#m"/><use transform="matrix(0.010850694444444444,0,0,0.010850694444444444,312.92317708333337,0)" xlink:href="#A"/><use transform="matrix(0.010850694444444444,0,0,0.010850694444444444,326.05251736111114,0)" xlink:href="#D"/><use transform="matrix(0.010850694444444444,0,0,0.010850694444444444,339.65928819444446,0)" xlink:href="#o"/><use transform="matrix(0.010850694444444444,0,0,0.010850694444444444,350.54253472222223,0)" xlink:href="#w"/><use transform="matrix(0.010850694444444444,0,0,0.010850694444444444,364.14930555555554,0)" xlink:href="#x"/><use transform="matrix(0.010850694444444444,0,0,0.010850694444444444,377.4739583333333,0)" xlink:href="#u"/><use transform="matrix(0.010850694444444444,0,0,0.010850694444444444,389.20355902777777,0)" xlink:href="#s"/><use transform="matrix(0.010850694444444444,0,0,0.010850694444444444,394.58550347222223,0)" xlink:href="#n"/><use transform="matrix(0.010850694444444444,0,0,0.010850694444444444,401.85546875,0)" xlink:href="#s"/><use transform="matrix(0.010850694444444444,0,0,0.010850694444444444,407.23741319444446,0)" xlink:href="#x"/><use transform="matrix(0.010850694444444444,0,0,0.010850694444444444,420.56206597222223,0)" xlink:href="#A"/><use transform="matrix(0.010850694444444444,0,0,0.010850694444444444,433.69140625,0)" xlink:href="#u"/></g><path d="M98-1322v-168h1126v168H757V0H567v-1322H98" id="K"/><g id="k"><use transform="matrix(0.010850694444444444,0,0,0.010850694444444444,0,0)" xlink:href="#K"/><use transform="matrix(0.010850694444444444,0,0,0.010850694444444444,12.608506944444445,0)" xlink:href="#m"/><use transform="matrix(0.010850694444444444,0,0,0.010850694444444444,25.56423611111111,0)" xlink:href="#y"/><use transform="matrix(0.010850694444444444,0,0,0.010850694444444444,34.27734375,0)" xlink:href="#v"/><use transform="matrix(0.010850694444444444,0,0,0.010850694444444444,53.74348958333333,0)" xlink:href="#s"/><use transform="matrix(0.010850694444444444,0,0,0.010850694444444444,59.12543402777778,0)" xlink:href="#A"/><use transform="matrix(0.010850694444444444,0,0,0.010850694444444444,72.25477430555554,0)" xlink:href="#z"/><use transform="matrix(0.010850694444444444,0,0,0.010850694444444444,84.73307291666666,0)" xlink:href="#n"/><use transform="matrix(0.010850694444444444,0,0,0.010850694444444444,91.78602430555556,0)" xlink:href="#x"/><use transform="matrix(0.010850694444444444,0,0,0.010850694444444444,105.11067708333331,0)" xlink:href="#y"/></g></defs></g></svg>